<?xml version="1.0" encoding="utf-8"?>
<!-- Generator: Adobe Illustrator 15.0.0, SVG Export Plug-In . SVG Version: 6.00 Build 0)  -->
<!DOCTYPE svg PUBLIC "-//W3C//DTD SVG 1.1//EN" "http://www.w3.org/Graphics/SVG/1.1/DTD/svg11.dtd">
<svg version="1.1" id="Layer_1" xmlns="http://www.w3.org/2000/svg" xmlns:xlink="http://www.w3.org/1999/xlink" x="0px" y="0px"
	 width="557px" height="552.336px" viewBox="0 0 557 552.336" enable-background="new 0 0 557 552.336" xml:space="preserve">
<g>
	<path fill="#FFFFFF" d="M277.64,301.301c81.851,0,148.82-66.97,148.82-148.82c0-81.851-66.972-148.82-148.82-148.82
		S128.82,70.63,128.82,152.481S195.789,301.301,277.64,301.301z M277.64,28.465c68.209,0,124.017,55.808,124.017,124.017
		S345.849,276.499,277.64,276.499s-124.017-55.808-124.017-124.017C153.623,84.271,209.431,28.465,277.64,28.465z"/>
	<path fill="#FFFFFF" d="M389.255,326.104h-223.23c-89.292,0-161.222,71.933-161.222,161.224v62.01h24.804v-62.01
		c0-75.65,60.771-136.418,136.418-136.418h223.23c75.648,0,136.418,60.768,136.418,136.418v62.01h24.804v-62.01
		C550.477,398.034,478.547,326.104,389.255,326.104z"/>
</g>
</svg>
