<?xml version="1.0" encoding="utf-8"?>
<!-- Generator: Adobe Illustrator 15.0.0, SVG Export Plug-In . SVG Version: 6.00 Build 0)  -->
<!DOCTYPE svg PUBLIC "-//W3C//DTD SVG 1.1//EN" "http://www.w3.org/Graphics/SVG/1.1/DTD/svg11.dtd">
<svg version="1.1" id="Layer_1" xmlns="http://www.w3.org/2000/svg" xmlns:xlink="http://www.w3.org/1999/xlink" x="0px" y="0px"
	 width="24px" height="24px" viewBox="0 0 24 24" enable-background="new 0 0 24 24" xml:space="preserve">
<g>
	<path fill="#8EC7F4" d="M23,3H4.9L4.5,0.8C4.4,0.3,3.9,0,3.4,0C3.3,0,1,0,1,0C0.4,0,0,0.4,0,1s0.4,1,1,1h1.7l0.5,3l0,0L5,17
		c0.1,0.5,0.4,1,1,1h15c0.6,0,1-0.6,1-1l2-13C24.1,3.5,23.6,3,23,3z M20.2,16H6.8L5.2,5h16.5L20.2,16z"/>
	<path fill="#8EC7F4" d="M17.5,19c-1.4,0-2.5,1.1-2.5,2.5s1.1,2.5,2.5,2.5s2.5-1.1,2.5-2.5S18.9,19,17.5,19z M17.5,23
		c-0.8,0-1.5-0.7-1.5-1.5s0.7-1.5,1.5-1.5s1.5,0.7,1.5,1.5S18.3,23,17.5,23z"/>
	<path fill="#8EC7F4" d="M8.5,19C7.1,19,6,20.1,6,21.5S7.1,24,8.5,24s2.5-1.1,2.5-2.5S9.9,19,8.5,19z M8.5,23C7.7,23,7,22.3,7,21.5
		S7.7,20,8.5,20s1.5,0.7,1.5,1.5S9.3,23,8.5,23z"/>
</g>
</svg>
