<?xml version="1.0" encoding="utf-8"?>
<!-- Generator: Adobe Illustrator 15.0.0, SVG Export Plug-In . SVG Version: 6.00 Build 0)  -->
<!DOCTYPE svg PUBLIC "-//W3C//DTD SVG 1.1//EN" "http://www.w3.org/Graphics/SVG/1.1/DTD/svg11.dtd">
<svg version="1.1" id="Layer_1" xmlns="http://www.w3.org/2000/svg" xmlns:xlink="http://www.w3.org/1999/xlink" x="0px" y="0px"
	 width="595.279px" height="515px" viewBox="0 0 595.279 515" enable-background="new 0 0 595.279 515" xml:space="preserve">
<g id="info">
</g>
<g id="icons">
	<g id="exit2">
		<path fill="#FFFFFF" d="M297.64,210.338c27.284,0,49.605-22.322,49.605-49.607V61.518c0-27.284-22.321-49.607-49.605-49.607
			c-27.283,0-49.606,22.323-49.606,49.607v99.212C248.033,188.016,270.357,210.338,297.64,210.338z"/>
		<path fill="#FFFFFF" d="M473.743,83.841L473.743,83.841c-7.439-7.441-14.882-9.921-27.282-9.921
			c-19.844,0-37.205,17.362-37.205,37.205c0,9.921,4.961,19.843,9.921,27.284l0,0l0,0l0,0
			c32.244,32.243,49.606,74.409,49.606,121.537c0,96.731-76.891,173.623-173.624,173.623c-96.731,0-173.623-76.892-173.623-173.623
			c0-47.126,19.843-91.772,52.087-121.537l0,0c7.441-7.441,12.401-17.362,12.401-27.284c0-19.843-17.362-37.205-37.205-37.205
			c-9.921,0-19.842,4.961-27.283,9.921l0,0c-44.646,44.646-71.93,106.654-71.93,176.104c0,136.418,111.615,248.033,248.033,248.033
			s248.033-111.615,248.033-248.033C545.674,190.496,518.39,128.486,473.743,83.841z"/>
	</g>
</g>
</svg>
