<?xml version="1.0" encoding="utf-8"?>
<!-- Generator: Adobe Illustrator 15.0.0, SVG Export Plug-In . SVG Version: 6.00 Build 0)  -->
<!DOCTYPE svg PUBLIC "-//W3C//DTD SVG 1.1//EN" "http://www.w3.org/Graphics/SVG/1.1/DTD/svg11.dtd">
<svg version="1.1" id="Layer_1" xmlns="http://www.w3.org/2000/svg" xmlns:xlink="http://www.w3.org/1999/xlink" x="0px" y="0px"
	 width="565.018px" height="570px" viewBox="0 0 565.018 570" enable-background="new 0 0 565.018 570" xml:space="preserve">
<path fill="#8EC7F4" d="M559.156,543.992l-164.94-164.941c35.965-39.688,57.047-91.773,57.047-148.821
	C451.263,107.454,350.81,7,228.034,7C105.258,7,4.804,107.454,4.804,230.23c0,122.778,100.454,223.231,223.23,223.231
	c57.048,0,109.135-22.324,148.819-57.049l164.941,164.941L559.156,543.992z M29.607,230.23
	c0-109.135,89.292-198.427,198.428-198.427c109.135,0,198.426,89.293,198.426,198.427c0,109.133-89.292,198.426-198.427,198.426
	C118.898,428.656,29.607,339.365,29.607,230.23z"/>
</svg>
