<?xml version="1.0" encoding="utf-8"?>
<!-- Generator: Adobe Illustrator 15.0.0, SVG Export Plug-In . SVG Version: 6.00 Build 0)  -->
<!DOCTYPE svg PUBLIC "-//W3C//DTD SVG 1.1//EN" "http://www.w3.org/Graphics/SVG/1.1/DTD/svg11.dtd">
<svg version="1.1" id="Layer_1" xmlns="http://www.w3.org/2000/svg" xmlns:xlink="http://www.w3.org/1999/xlink" x="0px" y="0px"
	 width="449.801px" height="400px" viewBox="0 0 449.801 400" enable-background="new 0 0 449.801 400" xml:space="preserve">
<g>
	<g id="Icon-Heart" transform="translate(178.000000, 230.000000)">
		<path id="Fill-18" fill="#FFFFFF" d="M49.502,164.396l-7.44-6.513C-127.223,20.227-172.799-28.139-172.799-107.2
			c0-65.109,53.019-117.196,117.195-117.196c53.947,0,84.643,30.694,105.104,53.947c20.463-23.253,51.155-53.947,105.104-53.947
			c65.108,0,117.195,53.018,117.195,117.196c0,79.062-45.576,127.427-214.858,265.084L49.502,164.396L49.502,164.396z
			 M-55.603-200.212c-51.156,0-93.013,41.855-93.013,93.013c0,67.898,42.785,112.545,198.116,239.971
			C204.832,5.346,247.618-39.301,247.618-107.2c0-51.157-41.855-93.013-93.014-93.013c-46.507,0-71.62,27.903-91.151,50.227
			l-13.951,15.813l-13.951-15.813C16.017-172.309-9.097-200.212-55.603-200.212L-55.603-200.212z"/>
	</g>
</g>
</svg>
