<?xml version="1.0" encoding="utf-8"?>
<!-- Generator: Adobe Illustrator 15.0.0, SVG Export Plug-In . SVG Version: 6.00 Build 0)  -->
<!DOCTYPE svg PUBLIC "-//W3C//DTD SVG 1.1//EN" "http://www.w3.org/Graphics/SVG/1.1/DTD/svg11.dtd">
<svg version="1.1" id="Layer_1" xmlns="http://www.w3.org/2000/svg" xmlns:xlink="http://www.w3.org/1999/xlink" x="0px" y="0px"
	 width="595.279px" height="331px" viewBox="0 0 595.279 331" enable-background="new 0 0 595.279 331" xml:space="preserve">
<g>
	<path d="M297.64,324.879c-3.255,0-6.396-1.278-8.836-3.721L3.488,25.728c-4.65-4.883-4.534-12.674,0.35-17.323
		c4.884-4.651,12.674-4.535,17.323,0.349l285.433,295.315c4.65,4.883,4.535,12.673-0.35,17.323
		C303.802,323.716,300.663,324.879,297.64,324.879z"/>
	<path d="M297.64,324.879c-3.022,0-6.162-1.163-8.487-3.487c-4.883-4.65-4.999-12.44-0.349-17.323L574.236,8.752
		c4.651-4.883,12.44-5,17.324-0.349c4.883,4.65,4.999,12.439,0.349,17.322L306.476,321.042
		C304.034,323.599,300.896,324.879,297.64,324.879z"/>
</g>
</svg>
