<?xml version="1.0" standalone="no"?>
<!DOCTYPE svg PUBLIC "-//W3C//DTD SVG 1.1//EN" "http://www.w3.org/Graphics/SVG/1.1/DTD/svg11.dtd" >
<svg xmlns="http://www.w3.org/2000/svg">
<metadata>Generated by IcoMoon</metadata>
<defs>
<font id="icomoon" horiz-adv-x="1024">
<font-face units-per-em="1024" ascent="960" descent="-64" />
<missing-glyph horiz-adv-x="1024" />
<glyph unicode="&#x20;" horiz-adv-x="512" d="" />
<glyph unicode="&#xe600;" glyph-name="uniE600" d="M873.216 871.136c-131.36 62.848-288.128 5.664-349.952-127.68-4.32-9.28-8.032-20.896-11.328-34.4-3.296 13.504-7.008 25.12-11.264 34.4-61.888 133.344-218.496 190.528-349.888 127.68-131.2-62.848-187.488-221.92-125.664-355.296 61.856-133.344 486.688-515.68 486.688-515.68s0.032 0.448 0.096 1.152c0.096-0.704 0.128-1.152 0.128-1.152s425.024 382.336 486.88 515.68c61.792 133.376 5.664 292.448-125.696 355.296z" />
<glyph unicode="&#xe601;" glyph-name="uniE601" d="M725.066 850.102c-99.62-99.584-41.618-41.544-41.618-41.544l192.804-192.768c0 0-62.134-62.098 41.544 41.546s-93.222 292.388-192.73 192.768zM640.294 767.342l-455.974-455.972 0.658-0.586-108.142-293.048 299.666 101.376 0.622-0.622 1.572 1.61v0.038l454.4 454.4-192.806 192.806zM358.072 208.75l-157.622-66.56 74.094 150.088 76.69 76.726 83.528-83.566-76.69-76.69z" />
<glyph unicode="&#xe602;" glyph-name="uniE602" d="M511.904 960l-511.904-896h1024l-512.096 896zM574.24 707.616v-130.72l-33.376-257.088h-54.176l-36.064 257.088-1.984 130.72h125.6zM448.192 128.224v128.224h128.48v-128.224h-128.48z" />
<glyph unicode="&#xe603;" glyph-name="uniE603" d="M727.846 224.038c-59.61-57.528-137.326-87.004-216.026-87.076-70.29 0.072-140.398 23.514-198.694 71.864-74.058 61.658-112.092 149.942-112.2 239.322 0 14.884 1.098 29.658 3.182 44.36l-121.344-22.748c-0.328-7.204-0.584-14.372-0.584-21.614-0.072-122.99 52.918-245.798 155.098-330.57 80.018-66.67 177.774-99.366 274.504-99.366h0.256c112.422 0 224.328 44.434 307.492 129.828l79.688-79.544 0.622 249.49-263.606 0.696 91.61-94.648zM786.688 778.46c-80.092 66.67-177.846 99.328-274.542 99.328-111.616 0-222.794-43.666-305.846-127.89l-75.374 69.596-1.354-241.444 260.974-1.5-92.672 96.986c59.282 56.504 136.376 85.394 214.308 85.466 70.216-0.072 140.434-23.442 198.656-71.864 74.058-61.658 112.092-149.87 112.274-239.396 0-12.874-0.914-25.784-2.45-38.73l120.87 23.186c0.072 5.23 0.328 10.424 0.328 15.544-0.072 123.098-53.028 245.798-155.174 330.714z" />
<glyph unicode="&#xe604;" glyph-name="uniE604" d="M191.584-64h640.8v640.16h-640.8v-640.16zM636.672 457.024c0 19.808 16.064 35.808 35.904 35.808 19.808 0 35.872-16 35.872-35.808v-377.472c0-19.776-16.064-35.84-35.872-35.84-19.84 0-35.904 16.064-35.904 35.84v377.472zM476.096 457.024c0 19.808 16.064 35.808 35.84 35.808s35.84-16 35.84-35.808v-377.472c0-19.776-16.064-35.84-35.84-35.84s-35.84 16.064-35.84 35.84v377.472zM315.2 457.024c0 19.808 16 35.808 35.84 35.808 19.776 0 35.84-16 35.84-35.808v-377.472c0-19.776-16.064-35.84-35.84-35.84-19.84 0-35.84 16.064-35.84 35.84v377.472zM846.432 833.056h-142.464v21.792c0 58.080-39.52 105.152-97.6 105.152h-189.44c-58.016 0-96.96-47.072-96.96-105.152v-21.792h-142.464c-27.392 0-49.536-22.176-49.536-49.504v-143.968h768v143.968c0 27.328-22.080 49.504-49.536 49.504zM639.872 833.056h-256.384v29.408c0.064 18.496 14.976 33.472 33.44 33.536h189.44c18.432-0.064 33.408-15.040 33.504-33.536v-29.408z" />
<glyph unicode="&#xe605;" glyph-name="uniE605" d="M1023.040 556.992c-2.624 8.192-10.304 13.76-18.88 13.76h-361.408l-111.904 343.488c-2.688 8.192-10.272 13.76-18.88 13.76-8.544 0-16.192-5.568-18.88-13.76l-112.48-343.488h-360.768c-8.512 0-16.192-5.568-18.88-13.76-2.624-8.128 0.256-17.184 7.168-22.176l291.968-212.64-112.512-345.44c-2.656-8.192 0.256-17.184 7.232-22.24 6.912-4.992 16.416-4.992 23.328 0l293.792 213.248 293.28-213.248c3.584-2.56 7.52-3.872 11.616-3.872 4.192 0 8.288 1.312 11.712 3.872 7.136 5.056 9.92 14.016 7.2 22.24l-112.48 345.44 292.576 212.64c6.976 4.992 9.856 13.984 7.2 22.176z" />
<glyph unicode="&#xe606;" glyph-name="uniE606" d="M946.030 400.75v98.742l-14.006 4.536-105.764 34.488-28.232 68.206 54.308 114.762-69.816 69.814-13.166-6.618-99.11-50.396-68.206 28.234-42.788 119.514h-98.742l-4.572-13.97-34.524-105.764-68.096-28.198-114.798 54.272-69.85-69.852 6.618-13.128 50.36-99.182-28.16-68.058-119.516-42.824v-98.78l13.898-4.498 105.802-34.56 28.198-68.134-54.236-114.76 69.85-69.85 13.056 6.656 99.182 50.394 68.132-28.232 42.788-119.514h98.742l4.572 13.97 34.56 105.764 68.058 28.232 114.798-54.272 69.888 69.816-6.692 13.092-50.394 99.144 28.232 68.134 119.626 42.826zM512 309.722c-76.398 0-138.312 61.914-138.312 138.278 0 76.434 61.916 138.312 138.312 138.312 76.326 0 138.312-61.88 138.312-138.312 0-76.36-62.024-138.278-138.312-138.278z" />
<glyph unicode="&#xe607;" glyph-name="uniE607" d="M62.016 702.72l449.984-479.968 450.080 479.968z" />
<glyph unicode="&#xe608;" glyph-name="uniE608" d="M766.83 453.192l-425.142 437.174-74.57-69.962 356.572-366.554-366.556-376.904 72.96-71.314 411.318 422.912-0.402 0.402z" />
<glyph unicode="&#xe609;" glyph-name="uniE609" d="M105.856 690.4h812.288c22.112 0 40 17.952 40 40.032 0 22.144-17.888 40.064-40 40.064h-812.288c-22.112 0-40.032-17.92-40.032-40.064 0-22.080 17.92-40.032 40.032-40.032zM918.144 488.032h-812.288c-22.112 0-40.032-17.888-40.032-40.032s17.92-40.032 40.032-40.032h812.288c22.112 0 40 17.888 40 40.032s-17.856 40.032-40 40.032zM918.144 205.6h-812.288c-22.112 0-40.032-17.92-40.032-40.064s17.92-40.032 40.032-40.032h812.288c22.112 0 40 17.888 40 40.032s-17.856 40.064-40 40.064z" />
<glyph unicode="&#xe60a;" glyph-name="uniE60A" d="M512.288 960c-178.24 0-322.688-144.48-322.688-322.752 0-178.208 322.688-701.248 322.688-701.248s322.752 523.040 322.752 701.248c0 178.272-144.384 322.752-322.752 322.752zM512.288 539.232c-54.112 0-98.048 43.904-98.048 98.016 0 54.144 43.968 98.048 98.048 98.048 54.208 0 98.176-43.904 98.176-98.048 0-54.112-43.968-98.016-98.176-98.016z" />
<glyph unicode="&#xe60b;" glyph-name="uniE60B" d="M0 512.288h448.064v447.616h-448.064v-447.616zM576.256 959.904v-191.456h448.352v191.456h-448.352zM0-64h448.064v447.616h-448.064v-447.616zM576.256 512.288h448.352v191.456h-448.352v-191.456zM576.256 192.16h448.352v191.456h-448.352v-191.456zM576.256-64h448.352v191.424h-448.352v-191.424z" />
<glyph unicode="&#xe60c;" glyph-name="uniE60C" d="M665.528 238.006c-18.432 0-90.99-112.054-130.486-112.054-10.568 0-15.726 9.288-15.726 18.432 0 21.138 14.482 54.088 22.308 73.874l94.794 256.768c47.544 127.782-13.092 162.048-69.742 162.048-76.434 0-144.896-38.182-197.558-88.248-17.152-17.152-75.046-72.412-75.046-96.182 0-7.864 7.862-17.152 17.152-17.152 23.626 0 86.894 114.616 135.606 114.616 10.57 0 22.382-11.848 13.166-35.51l-92.16-231.936c-9.288-22.308-54.088-130.342-54.088-193.572 0-50.030 32.952-72.376 80.384-72.376 133.046 0 287.086 163.29 287.086 201.51-0.038 11.85-9.178 19.784-15.688 19.784zM639.086 879.322c-57.894 0-108.032-47.36-108.032-105.326 0-54.016 35.584-89.6 89.674-89.6 59.1 0 109.24 44.8 109.24 105.4 0 54.016-38.144 89.528-90.88 89.528z" />
<glyph unicode="&#xe60d;" glyph-name="uniE60D" d="M0 703.104h256.928v256.896h-256.928v-256.896zM383.52 703.104h257.056v256.896h-257.056v-256.896zM767.136 960v-256.896h256.992v256.896h-256.992zM0 319.488h256.928v256.928h-256.928v-256.928zM383.52 319.488h257.056v256.928h-257.056v-256.928zM767.136 319.488h256.992v256.928h-256.992v-256.928zM0-64h256.928v256h-256.928v-256zM383.52-64h257.056v256h-257.056v-256zM767.136-64h256.992v256h-256.992v-256z" />
<glyph unicode="&#xe60e;" glyph-name="uniE60E" d="M510.592 900.928c-249.376 0-451.52-202.144-451.52-451.52 0-249.344 202.144-451.52 451.52-451.52 249.344 0 451.52 202.176 451.52 451.52 0 249.376-202.144 451.52-451.52 451.52zM463.872 189.152l-251.872 256.064 64.416 51.872 145.728-114.176c59.52 70.848 192 212.064 374.624 323.968l15.392-35.584c-167.616-154.176-304.96-371.2-348.288-482.144z" />
<glyph unicode="&#xe60f;" glyph-name="uniE60F" d="M0 482.24h1024v-68.128h-1024v68.128z" />
<glyph unicode="&#xe610;" glyph-name="uniE610" d="M956.526 852.298c-285.11-174.776-491.96-395.264-584.96-505.894l-227.584 178.322-100.534-81.078 393.326-399.946c67.694 173.348 282.112 512.22 543.744 752.97l-23.99 55.626z" />
<glyph unicode="&#xe611;" glyph-name="uniE611" d="M441.152 166.496c-52.704 0-95.392-42.752-95.392-95.424s42.688-95.328 95.392-95.328c52.672 0 95.392 42.656 95.392 95.328s-42.72 95.424-95.392 95.424zM770.688 166.496c-52.8 0-95.52-42.752-95.52-95.424s42.688-95.328 95.52-95.328c52.576 0 95.264 42.656 95.264 95.328s-42.688 95.424-95.264 95.424zM919.712 700.64c-244.768 0-639.712 0-639.712 0s-38.304 105.216-74.784 169.728c-28.256 49.952-86.688 47.936-86.688 47.936-40.192 0-66.048-24.576-66.048-64.8 0-40.192 31.84-72.32 72.064-72.32l16.992-0.16 190.4-524.384 533.664-0.416c0 0 97.568 399.264 92.544 383.776 17.888 55.36-4.896 60.64-38.432 60.64zM333.056 514.688c-28 0-50.72 22.72-50.72 50.752s22.72 50.784 50.72 50.784c28.032 0 50.72-22.752 50.72-50.784s-22.688-50.752-50.72-50.752zM441.536 345.28c-28.032 0-50.752 22.752-50.752 50.784 0 27.968 22.72 50.72 50.752 50.72 28 0 50.72-22.752 50.72-50.72 0.032-28.032-22.72-50.784-50.72-50.784zM497.312 514.688c-28 0-50.752 22.72-50.752 50.752s22.72 50.784 50.752 50.784c28 0 50.72-22.752 50.72-50.784s-22.72-50.752-50.72-50.752zM605.792 345.28c-28 0-50.72 22.752-50.72 50.784 0 27.968 22.72 50.72 50.72 50.72 28.096 0 50.88-22.752 50.88-50.72 0-28.032-22.784-50.784-50.88-50.784zM661.696 514.688c-28 0-50.816 22.72-50.816 50.752s22.816 50.784 50.816 50.784c28 0 50.656-22.752 50.656-50.784s-22.656-50.752-50.656-50.752zM770.080 345.28c-27.968 0-50.656 22.752-50.656 50.784 0 27.968 22.72 50.72 50.656 50.72 28 0 50.816-22.752 50.816-50.72 0-28.032-22.816-50.784-50.816-50.784zM825.92 514.688c-28.032 0-50.72 22.72-50.72 50.752s22.688 50.784 50.72 50.784c28.096 0 50.752-22.752 50.752-50.784s-22.656-50.752-50.752-50.752z" />
<glyph unicode="&#xe612;" glyph-name="uniE612" d="M285.984 665.536c20.704 0 37.6 16.8 37.6 37.6v135.36c0 20.736-16.864 37.568-37.6 37.568-20.768 0-37.6-16.8-37.6-37.568v-135.36c0-20.8 16.832-37.6 37.6-37.6zM788.768 766.688v-0.64c15.552-13.888 25.44-34.016 25.44-56.576 0-41.632-33.76-75.424-75.488-75.424s-75.52 33.824-75.52 75.424c0 22.528 9.952 42.688 25.568 56.576v0.64h-352.832v-0.64c15.648-13.888 25.536-34.016 25.536-56.576 0-41.632-33.792-75.424-75.456-75.424-41.728 0-75.488 33.824-75.488 75.424 0 22.528 9.856 42.688 25.504 56.576v0.64h-171.072v-767.2h894.496v767.2h-170.688zM897.44 65.664h-766.304v509.44h766.304v-509.44zM738.72 665.536c20.768 0 37.568 16.8 37.568 37.6v135.36c0 20.736-16.8 37.568-37.568 37.568-20.704 0-37.632-16.8-37.632-37.568v-135.36c0-20.8 16.928-37.6 37.632-37.6zM698.432 368.256h-95.872v-95.744h95.904v95.744zM698.432 512.224h-95.872v-95.648h95.904v95.648zM698.432 228.224h-95.872v-95.744h95.904v95.744zM833.312 512.224h-95.84v-95.648h95.84v95.648zM833.312 368.256h-95.84v-95.744h95.84v95.744zM563.392 512.224h-95.744v-95.648h95.744v95.648zM293.6 368.256h-95.712v-95.744h95.712v95.744zM428.576 228.224h-95.776v-95.744h95.744v95.744zM293.6 228.224h-95.712v-95.744h95.712v95.744zM563.392 368.256h-95.744v-95.744h95.744v95.744zM563.392 228.224h-95.744v-95.744h95.744v95.744zM428.576 368.256h-95.776v-95.744h95.744v95.744zM428.576 512.224h-95.776v-95.648h95.744v95.648z" />
<glyph unicode="&#xe613;" glyph-name="uniE613" d="M512 889.454l-401.628-486.582h262.108v-396.288h279.15v396.288h262.034z" />
<glyph unicode="&#xe614;" glyph-name="uniE614" d="M651.558 493.166v396.288h-279.186v-396.288h-261.998l401.664-486.584 401.626 486.584z" />
<glyph unicode="&#xe615;" glyph-name="uniE615" d="M974.464 71.744c0 0-156.352 160.576-218.656 222.624-27.104 27.104-45.664 45.504-45.664 45.504 21.12 30.176 37.632 63.232 49.408 98.784 11.68 35.52 17.504 72.992 17.504 112.384 0 50.72-9.632 98.4-28.896 143.104-19.328 44.64-45.568 83.648-78.912 116.864-33.28 33.376-72.288 59.648-116.992 78.944-44.672 19.328-92.352 28.992-143.072 28.992-50.688 0-98.368-9.696-143.104-28.992-44.672-19.296-83.424-45.568-116.384-78.944-32.832-33.216-59.040-72.256-78.304-116.896-19.328-44.672-28.992-92.384-28.992-143.104 0-50.752 9.696-98.432 28.992-143.104 19.264-44.608 45.44-83.584 78.304-116.928 32.928-33.216 71.712-59.552 116.352-78.912 44.736-19.328 92.416-28.896 143.104-28.896 39.36 0 76.832 5.76 112.416 17.536 35.552 11.712 68.576 28.288 98.72 49.44 0 0 17.152-17.024 42.4-42.432 69.024-69.28 220.832-226.784 220.832-226.784 22.912-9.984 59.424 0.672 77.696 16.128 18.080 15.552 28.192 47.968 13.248 74.688zM655.584 446.56c-14.016-32.384-33.152-60.672-57.248-84.672-24.192-24.096-52.384-43.232-84.672-57.216-32.256-14.048-66.784-21.056-103.36-21.056-37.408 0-72.192 7.008-104.512 21.056-32.32 14.016-60.576 33.12-84.672 57.216-24.096 24.032-43.232 52.32-57.216 84.672-14.016 32.224-21.024 67.136-21.024 104.48 0 36.544 7.008 71.264 21.024 103.968 13.984 32.672 33.12 61.12 57.216 85.184 24.096 24.192 52.352 43.328 84.672 57.216 32.32 14.112 67.104 21.024 104.512 21.024 36.576 0 71.104-6.912 103.36-21.024 32.288-13.92 60.48-33.024 84.672-57.216 24.064-24.064 43.232-52.512 57.248-85.184 14.016-32.704 20.96-67.424 20.96-103.968 0.032-37.344-6.912-72.256-20.96-104.48z" />
<glyph unicode="&#xe616;" glyph-name="uniE616" d="M966.51 830.354l-72.046 71.936-382.5-382.536-382.5 382.536-71.972-71.936 382.536-382.538-382.246-382.28 71.936-71.864 382.28 382.208 382.246-382.208 71.864 71.864-382.208 382.246z" />
<glyph unicode="&#xe617;" glyph-name="uniE617" d="M400.42 453.778l356.426 366.63-74.496 69.962-425.216-437.176 436.918-447.56 72.778 71.314z" />
<glyph unicode="&#xe618;" glyph-name="uniE618" d="M512 670.336l-449.984-479.968h900.064z" />
<glyph unicode="&#xe619;" glyph-name="uniE619" d="M193.248 902.24v-908.48l625.856 454.24z" />
<glyph unicode="&#xe61a;" glyph-name="uniE61A" d="M205.984 448l625.824-454.24v908.48z" />
<glyph unicode="&#xe61b;" glyph-name="uniE61B" d="M0 0.928h127.968v959.072h-127.968v-959.072zM1024.16 960h-831.648v-575.776h831.648l-276.416 284.064 276.416 291.712z" />
<glyph unicode="&#xe61c;" glyph-name="uniE61C" d="M1024 482.24h-477.024v477.76h-68.032v-477.76h-478.944v-68.128h478.944v-478.112h68.032v478.112h477.024z" />
<glyph unicode="&#xe61d;" glyph-name="uniE61D" d="M511.936 456.128l442.976 311.68c-5.312 1.056-10.688 1.696-16.256 1.696h-853.312c-5.6 0-11.008-0.64-16.288-1.696l442.88-311.68zM513.856 336.992l-1.92 2.816-1.888-2.816-509.12 358.272c-0.352-3.2-0.928-6.4-0.928-9.632v-535.424c0-47.808 38.208-86.624 85.344-86.624h853.312c47.2 0 85.376 38.816 85.376 86.624v535.424c0 3.264-0.576 6.432-0.992 9.632l-509.184-358.272z" />
<glyph unicode="&#xe61e;" glyph-name="uniE61E" d="M255.168 63.552v255.264h-255.168v-255.264h255.168zM638.496 832.48h-253.856v-768.896h253.856v768.896zM1023.168 574.944h-254.752v-511.36h254.752v511.36z" />
<glyph unicode="&#xe61f;" glyph-name="uniE61F" d="M510.592 900.928c-249.376 0-451.52-202.144-451.52-451.52 0-249.344 202.144-451.52 451.52-451.52 249.344 0 451.52 202.176 451.52 451.52 0 249.376-202.144 451.52-451.52 451.52zM744.32 289.664l-74.208-74.208-158.176 158.112-158.112-158.080-74.24 74.272 158.048 158.048-158.272 158.24 74.272 74.272 158.24-158.272 158.368 158.368 74.304-74.304-158.4-158.336 158.176-158.112z" />
<glyph unicode="&#xe620;" glyph-name="uniE620" d="M525.496 837.376c-227.328 4.498-414.428-135.606-417.938-312.87-1.17-61.658 19.968-119.626 57.6-169.288l-9.838 9.91c64.768-83.236-62.208-306.616-62.208-306.616l284.562 140.69c45.020-14.19 88.32-23.846 139.448-24.904 227.328-4.462 410.222 156.71 413.696 334.008 3.51 177.262-177.92 324.608-405.322 329.070z" />
<glyph unicode="&#xe621;" glyph-name="uniE621" d="M518.326 570.844l403.674-392.448 77.092 82.14-481.426 468.042-492.726-480.952 78.52-80.202z" />
<glyph unicode="&#xe622;" glyph-name="uniE622" d="M505.638 325.158l-403.64 392.448-77.056-82.14 481.354-468.042 492.8 480.952-78.664 80.202z" />
<glyph unicode="&#xe623;" glyph-name="uniE623" d="M512-66.496c-282.816 0-512 229.248-512 512s229.184 512 512 512c282.752 0 512-229.248 512-512s-229.216-512-512-512zM512 895.52c-248.096 0-450.016-201.92-450.016-450.016s201.92-450.048 450.016-450.048 449.984 201.92 449.984 450.016-201.856 450.048-449.984 450.048zM640.48 438.304l-31.2-24.256c-16.992-13.248-28.256-28.64-33.824-46.304-3.552-11.2-6.016-24.512-6.336-48h-119.424c1.76 49.696 7.008 79.936 14.656 98.944 7.616 18.944 27.264 40.736 58.88 65.44l32.064 25.056c10.56 8 19.072 16.64 25.504 26.048 11.744 16.128 17.568 33.952 17.568 53.312 0 22.304-6.496 42.624-19.552 60.992-12.992 18.368-36.8 27.616-71.424 27.616-34.016 0-58.112-11.36-72.32-34.016s-21.184-43.328-21.184-67.68h-127.36c3.488 83.744 32.64 140.32 87.552 175.264 34.688 22.304 77.312 33.504 127.808 33.504 66.432 0 121.568-15.872 165.504-47.616 43.936-31.68 69.6-96.864 69.6-159.2 0-38.176-13.248-52.192-32.288-78.368-11.168-15.84-32.544-36.096-64.224-60.736zM575.456 128h-127.008v127.36h127.008v-127.36z" />
<glyph unicode="&#xe624;" glyph-name="uniE624" d="M833.312 256v271.392h-641.344v-271.392h-191.968v398.688c0 27.52 22.336 49.824 49.888 49.824h924.288c27.488 0 49.824-22.304 49.824-49.824v-398.688h-190.688zM928.608 649.248c-22.048 0-39.84-17.856-39.84-39.872s17.792-39.904 39.84-39.904c21.984 0 39.936 17.92 39.936 39.904 0 22.016-17.984 39.872-39.936 39.872zM255.456 960h512v-192.384h-512v192.384zM321.952 63.328h382.464v384.672h63.648v-448.16h-511.968v448.16h65.824v-384.672z" />
<glyph unicode="&#xe625;" glyph-name="uniE625" d="M1004.16 570.752h-361.408l-111.904 343.488c-2.688 8.192-10.272 13.76-18.88 13.76-8.544 0-16.192-5.568-18.88-13.76l-112.48-343.488h-360.768c-8.512 0-16.192-5.568-18.88-13.76-2.624-8.128 0.256-17.184 7.168-22.176l291.968-212.64-112.512-345.44c-2.656-8.192 0.256-17.184 7.232-22.24 6.912-4.992 16.416-4.992 23.328 0l293.792 213.248 293.28-213.248c3.584-2.56 7.52-3.872 11.616-3.872 4.192 0 8.288 1.312 11.712 3.872 7.136 5.056 9.92 14.016 7.2 22.24l-112.48 345.44 292.576 212.64c6.976 4.992 9.856 14.016 7.2 22.176-2.624 8.192-10.336 13.76-18.88 13.76zM666.848 340.512l96.416-296.128-251.264 182.72-251.936-182.88 96.512 296.256-250.336 182.272h309.152l96.512 294.752 96.032-294.752h309.664l-250.752-182.24z" />
<glyph unicode="&#xe626;" glyph-name="uniE626" d="M638.752 447.648v255.52h-253.504v-255.52h-179.488l306.336-377.216 306.176 377.216zM512.032 960c-282.784 0-512-229.216-512-511.968 0-282.784 229.216-512.032 512-512.032 282.752 0 512 229.248 512 512.032 0 282.752-229.248 511.968-512 511.968zM512.032 0c-247.040 0-448 200.992-448 448.032 0 247.008 200.96 447.968 448 447.968s448-200.96 448-447.968c0-247.040-200.96-448.032-448-448.032z" />
<glyph unicode="&#xe627;" glyph-name="uniE627" d="M511.964 881.188c-239.214 0-433.152-193.938-433.152-433.188s193.938-433.19 433.152-433.19c239.25 0 433.19 193.938 433.19 433.19s-193.902 433.19-433.19 433.19zM511.964 839.826c216.102 0 391.826-175.762 391.826-391.826 0-90.368-31.014-173.422-82.65-239.798-6.216 2.268-12.434 4.39-18.394 6.912-39.496 16.53-83.418 35.914-122.842 52.188-11.264 3.072-22.528 6.144-33.792 9.216-13.384 9.178-26.66 39.972-33.828 55.332-7.096 1.024-14.298 2.010-21.504 2.962 1.062 23.736 15.762 25.088 21.504 43.082 5.082 15.908 0.586 36.682 8.558 51.456 5.558 10.24 18.25 10.24 24.466 19.090 5.706 7.9 9.544 21.834 11.336 31.598 3.218 17.81 6.034 42.24-2.414 59.976-4.864 10.13-7.936 11.154-9.288 23.478-1.646 15.032 4.424 63.782 4.682 74.35 0.586 27.356-0.11 29.586-6.692 56.246 0 0-8.010 24.174-20.59 31.452l-25.16 4.316-15.544 14.372c-62.61 38.546-129.754 11.52-165.668-2.998-51.822-16.86-84.59-67.584-61.734-175.91 3.914-18.578-10.13-26.842-9.216-36.936 2.084-22.090 2.414-75.228 23.296-88.248 1.938-1.206 16.75-4.938 16.678-3.876 2.012-21.504 4.096-43.044 6.108-64.476 5.23-14.298 17.738-15.908 21.358-36.096l-15.982-3.84c-7.204-15.36-20.37-46.154-33.792-55.332-11.3-3.034-22.564-6.106-33.83-9.178-39.462-16.238-83.31-35.658-122.844-52.188-2.158-0.878-4.426-1.572-6.582-2.414-49.518 65.572-79.25 146.908-79.25 235.264 0 216.064 175.762 391.826 391.79 391.826z" />
<glyph unicode="&#xe628;" glyph-name="uniE628" d="M189.6 645.184l-186.848 156.928-0.992-643.936 633.376 112.672-178.432 149.92c364.224 335.040 455.808-16.256 492.544-409.568 131.872 1148.128-459.68 890.656-759.648 633.984z" />
<glyph unicode="&#xe629;" glyph-name="uniE629" d="M856.864 448h-40.16v192.352c0 86.72-32.896 166.208-87.264 224.288-54.112 58.112-131.264 95.424-216.32 95.36-85.088 0.064-162.24-37.248-216.384-95.36-54.368-58.080-87.264-137.568-87.296-224.288v-192.352h-41.632c-21.632 0-39.168-17.504-39.168-39.168v-433.6c0-21.696 17.536-39.232 39.168-39.232h689.056c21.6 0 39.168 17.536 39.168 39.264v433.6c0 21.632-17.568 39.136-39.168 39.136zM353.632 640.352c0 50.048 18.944 94.336 48.384 125.856 29.696 31.456 68.288 49.568 111.104 49.632 42.752-0.064 81.376-18.144 111.072-49.632 29.408-31.488 48.352-75.776 48.352-125.856v-192.352h-318.88v192.352z" />
<glyph unicode="&#xe62a;" glyph-name="uniE62A" d="M301.792 633.888h-224.384c-18.080 0-32.768-14.624-32.768-32.736v-160c0-18.112 14.688-32.736 32.768-32.736h224.384c18.112 0 32.864 14.624 32.864 32.736v160c0 18.112-14.752 32.736-32.864 32.736zM301.792 342.112h-158.752c-18.112 0-32.864-14.624-32.864-32.736v-340.64c-0.032-18.112 14.72-32.736 32.864-32.736h158.752c18.112 0 32.864 14.624 32.864 32.736v340.64c0 18.112-14.752 32.736-32.864 32.736zM946.656 633.888h-489.76c-18.112 0-32.736-14.624-32.736-32.736v-160c0-18.112 14.624-32.736 32.736-32.736h489.76c17.984 0 32.736 14.624 32.736 32.736v160c0 18.112-14.72 32.736-32.736 32.736zM879.040 338.752h-421.12c-18.112 0-32.736-14.688-32.736-32.8v-337.184c0-18.112 14.624-32.736 32.736-32.736h421.12c18.112 0 32.736 14.624 32.736 32.736v337.184c0 18.112-14.624 32.8-32.736 32.8zM503.904 671.36c38.24-7.008 75.136-11.072 109.632-11.072 173.376 0 267.36 93.184 267.872 180.928 0.256 56.512-41.504 117.76-136.736 118.752-127.616 0-206.624-90.112-247.744-156.992-41.888 66.624-121.248 154.944-249.12 154.944-92.512-0.928-134.4-62.176-134.016-118.656 0.352-87.776 94.496-181.024 267.872-181.024v0c37.504 0 77.76 4.256 119.744 12.672l2.496 0.448zM746.528 878.016c16-0.128 53.12-4 52.864-36.384-0.128-41.248-57.984-99.36-185.888-99.36-17.632 0-36 1.12-55.264 3.36 29.152 51.296 90.432 132.384 188.288 132.384zM381.664 740.256v0c-127.872 0-185.76 58.112-185.984 99.36-0.16 32.32 36.992 36.192 54.72 36.384 96.736 0 157.632-81.12 186.368-132.448-19.104-2.176-37.472-3.296-55.104-3.296z" />
<glyph unicode="&#xe62b;" glyph-name="uniE62B" d="M364.512 806.816c0-18.496-15.008-33.44-33.376-33.44h-19.552c-18.432 0-33.44 14.944-33.44 33.44v119.744c0 18.432 15.008 33.44 33.44 33.44h19.552c18.368 0 33.376-15.008 33.376-33.44v-119.744zM746.144 806.816c0-18.496-15.008-33.44-33.376-33.44h-19.488c-18.496 0-33.376 14.944-33.376 33.44v119.744c0 18.432 14.848 33.44 33.376 33.44h19.488c18.368 0 33.376-15.008 33.376-33.44v-119.744zM797.632 506.304l-67.872 55.328-267.36-327.744-142.624 113.376-50.56-63.456 210.368-167.296zM943.904 868h-124.864v-52.128c0-55.36-45.12-100.384-100.256-100.384h-19.616c-55.36 0-100.256 44.992-100.256 100.384v52.128h-171.008v-52.128c0-55.36-44.992-100.384-100.256-100.384h-19.52c-55.328 0-100.32 44.992-100.32 100.384v52.128h-127.616c-18.432 0-33.44-15.008-33.44-33.376v-865.184c0-18.432 15.008-33.44 33.44-33.44h863.68c18.368 0 33.376 15.008 33.376 33.44v865.184c0.032 18.368-14.976 33.376-33.344 33.376zM877.024 85.184c0-18.496-15.008-33.44-33.504-33.44h-663.008c-18.496 0-33.504 14.944-33.504 33.44v504.192c0 18.496 15.008 33.376 33.504 33.376h663.008c18.496 0 33.504-14.88 33.504-33.376v-504.192z" />
<glyph unicode="&#xe900;" glyph-name="arrow-down" d="M504.525-30.925l307.2 307.2c9.984 9.984 9.984 26.214 0 36.198s-26.214 9.984-36.198 0l-263.475-263.475v834.202c0 14.131-11.469 25.6-25.6 25.6s-25.6-11.469-25.6-25.6v-834.202l-263.475 263.475c-9.984 9.984-26.214 9.984-36.198 0-5.018-5.018-7.475-11.571-7.475-18.125s2.509-13.107 7.475-18.125l307.2-307.2c9.984-9.984 26.214-9.984 36.198 0z" />
<glyph unicode="&#xe901;" glyph-name="arrow-left" d="M33.075 440.525l307.2 307.2c9.984 9.984 26.214 9.984 36.198 0s9.984-26.214 0-36.198l-263.475-263.475h834.202c14.131 0 25.6-11.469 25.6-25.6s-11.469-25.6-25.6-25.6h-834.202l263.475-263.475c9.984-9.984 9.984-26.214 0-36.198-5.018-5.018-11.571-7.475-18.125-7.475s-13.107 2.509-18.125 7.475l-307.2 307.2c-9.984 9.984-9.984 26.214 0 36.198z" />
<glyph unicode="&#xe902;" glyph-name="arrow-lft" d="M754.705-64c-3.499 0-6.946 0.649-10.291 1.877s-6.383 3.209-9.182 6.025l-484.881 484.898c-5.274 5.257-7.902 11.657-7.902 19.2s2.628 13.943 7.902 19.217l484.881 484.881c5.257 5.274 11.639 7.902 19.234 7.902 7.492 0 13.926-2.628 19.2-7.902 5.257-5.257 7.885-11.588 7.885-18.944s-2.628-13.687-7.885-18.944l-466.466-466.483 466.466-465.92c5.257-5.274 7.885-11.588 7.885-18.944 0-7.39-2.628-13.705-7.885-18.961-2.816-2.799-5.922-4.779-9.25-6.025s-6.554-1.877-9.711-1.877z" />
<glyph unicode="&#xe903;" glyph-name="arrow-rgt" d="M259.584-62.123c-3.328 1.229-6.434 3.209-9.25 6.025-5.257 5.274-7.885 11.588-7.885 18.961s2.628 13.687 7.885 18.944l466.466 465.92-466.466 466.466c-5.257 5.274-7.885 11.588-7.885 18.944s2.628 13.705 7.885 18.944c5.274 5.291 11.708 7.919 19.2 7.919 7.595 0 13.978-2.628 19.234-7.902l484.881-484.881c5.274-5.274 7.902-11.674 7.902-19.217s-2.628-13.943-7.902-19.2l-484.881-484.898c-2.799-2.799-5.854-4.779-9.182-6.025s-6.793-1.877-10.291-1.877c-3.157 0-6.383 0.649-9.711 1.877z" />
<glyph unicode="&#xe904;" glyph-name="arrow-right" d="M990.925 440.525l-307.2 307.2c-9.984 9.984-26.214 9.984-36.198 0s-9.984-26.214 0-36.198l263.475-263.475h-834.202c-14.131 0-25.6-11.469-25.6-25.6s11.469-25.6 25.6-25.6h834.202l-263.475-263.475c-9.984-9.984-9.984-26.214 0-36.198 5.018-5.018 11.571-7.475 18.125-7.475s13.107 2.509 18.125 7.475l307.2 307.2c9.984 9.984 9.984 26.214 0 36.198z" />
<glyph unicode="&#xe905;" glyph-name="arrow-up" d="M468.275 926.925l-307.2-307.2c-9.984-9.984-9.984-26.214 0-36.198s26.214-9.984 36.198 0l263.475 263.475v-834.202c0-14.131 11.469-25.6 25.6-25.6s25.6 11.469 25.6 25.6v834.202l263.475-263.475c9.984-9.984 26.214-9.984 36.198 0 5.018 5.018 7.475 11.571 7.475 18.125s-2.509 13.107-7.475 18.125l-307.2 307.2c-9.984 9.984-26.214 9.984-36.198 0z" />
<glyph unicode="&#xe906;" glyph-name="bag" d="M921.361 74.837l-58.573 660.258c-1.28 14.677-13.636 25.754-28.092 25.754h-120.542c-1.673 110.148-91.631 199.151-202.155 199.151s-200.516-89.003-202.206-199.151h-120.559c-14.643 0-26.761-11.076-28.041-25.754l-58.59-660.258c0-0.836-0.205-1.673-0.205-2.56 0-75.162 68.847-136.277 153.634-136.277h511.932c84.753 0 153.634 61.116 153.634 136.277 0 0.887 0 1.724-0.239 2.56zM512 903.458c79.309 0 144.009-63.659 145.681-142.609h-291.362c1.69 78.95 66.372 142.609 145.681 142.609zM767.966-7.475h-511.932c-53.197 0-96.29 35.209-97.126 78.575l56.081 633.003h94.601v-85.845c0-15.718 12.561-28.279 28.245-28.279 15.718 0 28.279 12.561 28.279 28.279v85.845h291.567v-85.845c0-15.718 12.544-28.279 28.228-28.279s28.245 12.561 28.245 28.279v85.845h94.635l56.286-633.003c-0.836-43.383-44.151-78.575-97.109-78.575z" />
<glyph unicode="&#xe907;" glyph-name="calender" d="M987.426 740.574v-731.426c0-19.763-7.219-36.915-21.709-51.422s-31.659-21.726-51.439-21.726h-804.574c-19.78 0-36.932 7.219-51.422 21.709s-21.709 31.642-21.709 51.422v731.443c0 19.797 7.219 36.949 21.709 51.439 14.507 14.473 31.642 21.709 51.422 21.709h73.148v54.852c0 25.139 8.926 46.626 26.846 64.563 17.937 17.903 39.441 26.863 64.58 26.863h36.574c25.139 0 46.643-8.96 64.58-26.863 17.92-17.937 26.863-39.424 26.863-64.563v-54.852h219.426v54.852c0 25.139 8.909 46.626 26.863 64.563 17.92 17.903 39.424 26.863 64.563 26.863h36.574c25.156 0 46.643-8.96 64.563-26.863 17.937-17.937 26.863-39.424 26.863-64.563v-54.852h73.131c19.78 0 36.932-7.253 51.439-21.709 14.507-14.507 21.709-31.659 21.709-51.439zM109.705 429.705h164.574v164.591h-164.574v-164.591zM109.705 210.278h164.574v182.852h-164.574v-182.852zM109.705 9.131h164.574v164.591h-164.574v-164.591zM329.148 704v164.574c0 4.932-1.792 9.216-5.427 12.851-3.635 3.601-7.936 5.427-12.851 5.427h-36.574c-4.932 0-9.216-1.826-12.851-5.427-3.669-3.635-5.444-7.919-5.444-12.851v-164.574c0-4.966 1.775-9.25 5.427-12.851 3.635-3.652 7.936-5.427 12.851-5.427h36.574c4.932 0 9.216 1.775 12.851 5.427 3.652 3.601 5.444 7.885 5.444 12.851zM310.852 429.705h182.852v164.591h-182.852v-164.591zM310.852 210.278h182.852v182.852h-182.852v-182.852zM310.852 9.131h182.852v164.591h-182.852v-164.591zM530.278 429.705h182.869v164.591h-182.869v-164.591zM530.278 210.278h182.869v182.852h-182.869v-182.852zM530.278 9.131h182.869v164.591h-182.869v-164.591zM768 704v164.574c0 4.932-1.775 9.216-5.41 12.851-3.669 3.601-7.953 5.427-12.868 5.427h-36.574c-4.949 0-9.216-1.826-12.868-5.427-3.635-3.635-5.427-7.919-5.427-12.851v-164.574c0-4.966 1.792-9.25 5.427-12.851 3.652-3.652 7.919-5.427 12.868-5.427h36.574c4.915 0 9.199 1.775 12.868 5.427 3.635 3.601 5.41 7.885 5.41 12.851zM749.722 429.705h164.574v164.591h-164.574v-164.591zM749.722 210.278h164.574v182.852h-164.574v-182.852zM749.722 9.131h164.574v164.591h-164.574v-164.591z" />
<glyph unicode="&#xe908;" glyph-name="cart" d="M409.6-64c-56.474 0-102.4 45.926-102.4 102.4s45.926 102.4 102.4 102.4 102.4-45.926 102.4-102.4-45.926-102.4-102.4-102.4zM409.6 89.6c-28.211 0-51.2-22.989-51.2-51.2s22.989-51.2 51.2-51.2 51.2 22.989 51.2 51.2-22.989 51.2-51.2 51.2zM768-64c-56.474 0-102.4 45.926-102.4 102.4s45.926 102.4 102.4 102.4 102.4-45.926 102.4-102.4-45.926-102.4-102.4-102.4zM768 89.6c-28.211 0-51.2-22.989-51.2-51.2s22.989-51.2 51.2-51.2 51.2 22.989 51.2 51.2-22.989 51.2-51.2 51.2zM897.997 731.29c-12.851 15.206-32.256 23.91-53.197 23.91h-626.842l-5.069 30.515c-6.707 40.294-43.981 71.885-84.89 71.885h-51.2c-14.131 0-25.6-11.469-25.6-25.6s11.469-25.6 25.6-25.6h51.2c15.718 0 31.795-13.619 34.355-29.133l85.555-513.382c6.707-40.294 43.981-71.885 84.89-71.885h512c14.131 0 25.6 11.469 25.6 25.6s-11.469 25.6-25.6 25.6h-512c-15.718 0-31.795 13.619-34.355 29.133l-12.646 75.776 510.208 44.39c39.68 3.43 75.93 36.915 82.483 76.237l34.355 206.182c3.43 20.685-1.946 41.267-14.797 56.422zM862.31 683.315l-34.355-206.182c-2.714-16.179-20.019-32.205-36.403-33.638l-514.202-44.698-50.893 305.254h618.291c5.99 0 11.008-2.048 14.131-5.786s4.352-9.011 3.379-14.899z" />
<glyph unicode="&#xe909;" glyph-name="checkmark-circle" d="M486.4-64c-129.946 0-252.058 50.586-343.962 142.438s-142.438 214.016-142.438 343.91c0 129.946 50.586 252.058 142.438 343.962s214.016 142.49 343.962 142.49c129.946 0 252.058-50.586 343.962-142.49s142.438-214.016 142.438-343.962-50.586-252.058-142.438-343.91c-91.853-91.853-214.016-142.438-343.962-142.438zM486.4 857.6c-239.974 0-435.2-195.226-435.2-435.2s195.226-435.2 435.2-435.2 435.2 195.226 435.2 435.2-195.226 435.2-435.2 435.2zM384 217.6c-6.554 0-13.107 2.509-18.125 7.475l-153.6 153.6c-9.984 9.984-9.984 26.214 0 36.198s26.214 9.984 36.198 0l135.475-135.475 340.275 340.275c9.984 9.984 26.214 9.984 36.198 0s9.984-26.214 0-36.198l-358.4-358.4c-5.018-5.018-11.571-7.475-18.125-7.475z" />
<glyph unicode="&#xe90a;" glyph-name="check-sign" d="M955.733 960h-887.467c-37.7 0-68.267-30.566-68.267-68.267v-887.467c0-37.7 30.566-68.267 68.267-68.267h887.467c37.7 0 68.267 30.566 68.267 68.267v887.467c0 37.7-30.566 68.267-68.267 68.267zM410.931 233.404l-180.002 185.122 45.005 46.285 134.997-138.854 297.199 306.159 45.005-46.302-342.204-352.41z" />
<glyph unicode="&#xe90b;" glyph-name="check-sign-blank" d="M955.733 960c37.7 0 68.267-30.566 68.267-68.267v-887.467c0-37.7-30.566-68.267-68.267-68.267h-887.467c-37.7 0-68.267 30.566-68.267 68.267v887.467c0 37.7 30.566 68.267 68.267 68.267h887.467zM410.931 233.404l-180.002 185.122 45.005 46.285 134.997-138.854 297.199 306.159 45.005-46.302-342.204-352.41zM926.14 917.333h-828.314c-35.157 0-63.693-28.535-63.693-63.693v-828.297c0-35.226 28.535-63.744 63.693-63.744h828.297c35.243 0 63.744 28.518 63.744 63.727v828.314c0 35.157-28.501 63.693-63.727 63.693z" />
<glyph unicode="&#xe90c;" glyph-name="compare" d="M551.049 244.634l281.327-281.020c3.174-3.174 4.745-6.98 4.745-11.418 0-4.454-1.587-8.26-4.745-11.435-1.69-1.758-3.584-2.867-5.564-3.652-2.065-0.785-3.959-1.109-5.854-1.109-2.15 0-4.215 0.324-6.195 1.109-1.963 0.785-3.891 1.894-5.547 3.652l-292.454 292.437c-3.157 3.174-4.762 6.98-4.762 11.588 0 4.54 1.604 8.414 4.762 11.605l292.437 292.42c3.174 3.191 7.066 4.762 11.588 4.762s8.414-1.587 11.605-4.762c3.174-3.174 4.745-6.98 4.745-11.418 0-4.454-1.587-8.26-4.745-11.435l-281.344-281.327zM214.477 347.187c-1.502-1.758-3.243-2.85-5.239-3.652-1.98-0.785-4.045-1.109-6.195-1.109-2.133 0-4.198 0.341-6.178 1.109-2.065 0.802-3.738 1.894-5.239 3.652-3.191 3.191-4.762 6.98-4.762 11.435s1.587 8.243 4.762 11.435l281.003 281.003-280.986 281.31c-3.191 3.174-4.762 6.98-4.762 11.435 0 4.437 1.587 8.243 4.762 11.418 3.157 3.191 6.98 4.779 11.401 4.779 4.454 0 8.26-1.587 11.435-4.762l292.745-292.437c3.191-3.174 4.779-7.066 4.779-11.588 0-4.557-1.587-8.414-4.762-11.588l-292.762-292.437z" />
<glyph unicode="&#xe90d;" glyph-name="cross" d="M567.398 447.625l445.457-444.689c7.68-7.697 11.537-16.93 11.537-27.699s-3.857-20.002-11.537-27.699c-4.113-4.096-8.602-7.049-13.466-8.841-4.881-1.792-9.882-2.697-15.002-2.697-4.625 0-9.37 0.905-14.234 2.697-4.881 1.775-9.37 4.727-13.466 8.841l-444.689 444.672-444.689-444.672c-4.096-4.096-8.585-7.049-13.466-8.841-4.864-1.792-9.609-2.697-14.217-2.697-5.137 0-10.138 0.905-15.002 2.697-4.864 1.775-9.353 4.727-13.466 8.841-7.697 7.697-11.537 16.93-11.537 27.699s3.84 20.002 11.537 27.699l445.457 444.689-445.457 445.44c-7.697 7.697-11.537 16.93-11.537 27.699s3.84 20.002 11.537 27.699c7.68 7.68 17.050 11.537 28.075 11.537s20.395-3.857 28.092-11.537l444.672-444.689 444.689 444.689c7.697 7.68 17.050 11.537 28.075 11.537s20.378-3.857 28.092-11.537c7.68-7.697 11.537-16.93 11.537-27.699s-3.857-20.002-11.537-27.699l-445.457-445.44z" />
<glyph unicode="&#xe90e;" glyph-name="discount" d="M456.38 194.679c-52.002 0-94.157-39.561-94.157-88.371s42.155-88.405 94.157-88.405 94.174 39.595 94.174 88.405-42.172 88.371-94.174 88.371zM742.434 194.679c-52.002 0-94.174-39.561-94.174-88.371s42.172-88.405 94.174-88.405 94.208 39.595 94.208 88.405-42.206 88.371-94.208 88.371zM479.471 624.896c-22.75 0-41.25-17.357-41.25-38.69s18.483-38.707 41.25-38.707c22.716 0 41.199 17.374 41.199 38.707s-18.483 38.69-41.199 38.69zM719.275 471.876c-22.75 0-41.233-17.34-41.233-38.69 0-21.333 18.483-38.673 41.233-38.673 22.716 0 41.199 17.357 41.199 38.673 0 21.35-18.483 38.69-41.199 38.69zM1009.459 739.413c-12.476 14.592-31.369 23.108-51.285 23.108h-600.986l-17.647 70.895c-6.519 26.163-31.351 44.663-59.989 44.663h-217.993c-33.997 0-61.559-25.873-61.559-57.805 0-31.915 27.563-57.805 61.559-57.805h97.161l105.796-449.929c10.155-43.23 50.995-74.069 98.15-74.069h473.481c47.206 0 87.996 30.839 98.15 74.069l88.166 374.869c4.284 18.313-0.478 37.444-13.005 52.002zM386.304 586.189c0 48.196 41.762 87.398 93.15 87.398 51.371 0 93.167-39.202 93.167-87.398s-41.796-87.415-93.167-87.415c-51.388 0-93.15 39.219-93.15 87.415zM509.338 320.205c-3.994 0-8.004 0.836-11.759 2.679-12.8 6.059-17.869 20.719-11.401 32.717l178.961 330.274c6.485 11.981 22.118 16.759 34.918 10.667 12.766-6.076 17.852-20.753 11.366-32.751l-178.91-330.274c-4.608-8.431-13.739-13.312-23.177-13.312zM719.275 345.805c-51.405 0-93.15 39.202-93.15 87.398 0 48.23 41.745 87.433 93.15 87.433 51.371 0 93.116-39.202 93.116-87.433 0-48.196-41.762-87.398-93.116-87.398z" />
<glyph unicode="&#xe90f;" glyph-name="downarrow" d="M698.18 960v-558.541h279.262l-465.442-465.459-465.442 465.459h279.262v558.541h372.361z" />
<glyph unicode="&#xe910;" glyph-name="down-arrow" d="M377.412 647.578c1.997 2.082 4.591 4.915 8.585 9.25 0 0-4.915-5.325-8.585-9.25zM541.986 177.357c-19.098-18.961-52.992-20.753-73.199 0l-452.83 464.657c-10.274 10.581-15.957 22.989-15.957 37.376 0 15.292 5.683 28.672 15.957 39.27 18.739 19.081 51.985 20.651 72.175 0l419.14-428.237 430.251 428.237c18.961 18.842 50.654 20.087 72.175-1.894 18.756-19.183 19.968-52.975-1.894-74.735l-465.818-464.674z" />
<glyph unicode="&#xe911;" glyph-name="edit" d="M979.439 915.405c14.387-14.336 25.395-30.874 33.058-49.562 7.629-18.705 11.503-38.229 11.503-58.59s-3.874-39.817-11.52-58.334-18.671-34.987-33.058-49.323l-653.397-653.892c-1.365-1.365-2.85-2.526-4.506-3.533-1.638-1.007-3.362-1.826-5.001-2.492l-281.907-102.144c-1.638-0.631-3.157-1.075-4.506-1.229-1.365-0.205-2.85-0.273-4.506-0.273-3.362 0-6.571 0.563-9.796 1.707-3.157 1.229-5.871 3.174-8.226 5.803-3.635 3.362-6.007 7.441-7.014 12.237-1.007 4.864-0.683 9.66 1.007 14.302l102.656 281.907c0.649 1.997 1.502 3.806 2.492 5.239 1.007 1.57 2.15 3.004 3.516 4.301l653.397 653.875c14.66 14.336 31.266 25.361 49.852 33.058 18.466 7.68 37.922 11.52 58.3 11.52s39.851-3.84 58.3-11.52c18.603-7.697 34.987-18.705 49.357-33.058zM293.478 86.238l567.791 567.313-143.206 143.206-567.791-567.33-81.613-225.297 224.819 82.108zM943.377 735.659c9.37 9.694 16.606 20.702 21.743 33.041 5.222 12.339 7.799 25.225 7.799 38.554 0 13.687-2.577 26.709-7.799 39.049-5.154 12.339-12.39 23.211-21.743 32.546-9.643 9.694-20.668 17.084-33.058 22.289-12.373 5.188-25.173 7.765-38.554 7.765-13.653 0-26.675-2.577-39.049-7.765-12.39-5.188-23.177-12.595-32.546-22.289l-46.063-45.568 143.206-143.206 46.063 45.585z" />
<glyph unicode="&#xe912;" glyph-name="enter" d="M896 857.6h-460.8c-42.342 0-76.8-34.458-76.8-76.8v-153.6c0-14.131 11.469-25.6 25.6-25.6s25.6 11.469 25.6 25.6v153.6c0 14.131 11.469 25.6 25.6 25.6h387.277l-196.71-84.326c-35.072-15.053-62.566-56.73-62.566-94.874v-486.4h-128c-14.131 0-25.6 11.469-25.6 25.6v153.6c0 14.131-11.469 25.6-25.6 25.6s-25.6-11.469-25.6-25.6v-153.6c0-42.342 34.458-76.8 76.8-76.8h128v-76.8c0-22.17 9.216-41.011 25.344-51.61 8.909-5.837 19.251-8.806 30.157-8.806 8.858 0 18.125 1.946 27.238 5.837l264.294 113.254c35.072 15.053 62.566 56.73 62.566 94.925v614.4c0 42.342-34.458 76.8-76.8 76.8zM921.6 166.4c0-17.971-15.053-40.755-31.539-47.821l-264.294-113.254c-4.915-2.099-8.141-1.946-9.062-1.382s-2.304 3.533-2.304 8.858v614.4c0 17.971 15.053 40.755 31.539 47.821l273.050 117.043c1.69-3.379 2.611-7.219 2.611-11.264v-614.4zM427.725 491.725l-153.6 153.6c-9.984 9.984-26.214 9.984-36.198 0s-9.984-26.214 0-36.198l109.875-109.875h-322.202c-14.131 0-25.6-11.469-25.6-25.6s11.469-25.6 25.6-25.6h322.202l-109.875-109.875c-9.984-9.984-9.984-26.214 0-36.198 5.018-5.018 11.571-7.475 18.125-7.475s13.107 2.509 18.125 7.475l153.6 153.6c9.984 9.984 9.984 26.214 0 36.198z" />
<glyph unicode="&#xe913;" glyph-name="envelope" d="M896 652.8h-819.2c-42.342 0-76.8-34.458-76.8-76.8v-460.8c0-42.342 34.458-76.8 76.8-76.8h819.2c42.342 0 76.8 34.458 76.8 76.8v460.8c0 42.342-34.458 76.8-76.8 76.8zM896 601.6c1.536 0 2.97-0.154 4.454-0.41l-385.638-257.075c-14.848-9.882-41.933-9.882-56.781 0l-385.638 257.075c1.434 0.256 2.918 0.41 4.454 0.41h819.2zM896 89.6h-819.2c-14.131 0-25.6 11.469-25.6 25.6v438.579l378.419-252.262c15.923-10.598 36.352-15.923 56.781-15.923s40.858 5.325 56.781 15.923l378.419 252.262v-438.579c0-14.131-11.469-25.6-25.6-25.6z" />
<glyph unicode="&#xe914;" glyph-name="facebook" d="M777.847 952.61v-162.458h-96.597c-35.311 0-59.102-7.39-71.407-22.153-12.305-14.78-18.449-36.932-18.449-66.475v-116.309h180.309l-24.013-182.153h-156.297v-467.063h-188.314v467.063h-156.928v182.17h156.928v134.161c0 76.305 21.299 135.475 63.983 177.545 42.667 42.035 99.482 63.061 170.462 63.061 60.331 0 107.076-2.441 140.322-7.39z" />
<glyph unicode="&#xe915;" glyph-name="faster-checkout" d="M836.181 371.866c-2.765-16.094-10.547-30.14-23.535-42.155-13.005-12.015-27.631-18.722-43.998-20.053l-417.468-36.42 10.24-62.208c1.075-6.281 4.42-11.81 10.018-16.589 5.598-4.745 11.674-7.151 18.21-7.151h419.123c5.717 0 10.633-2.048 14.711-6.144 4.096-4.079 6.144-8.994 6.144-14.711 0-5.751-2.048-10.65-6.144-14.746-4.079-4.079-8.994-6.127-14.711-6.127h-419.123c-16.93 0-32.051 5.615-45.431 16.981-13.38 11.298-21.436 25.173-24.149 41.557l-69.99 420.318c-1.092 6.298-4.454 11.776-10.018 16.572-5.615 4.762-11.674 7.168-18.21 7.168h-41.745c-6.007 0-11.042 2.048-15.138 6.144s-6.144 9.131-6.144 15.138c0 5.734 2.048 10.65 6.144 14.729s9.131 6.144 15.138 6.144h41.762c16.623 0 31.71-5.734 45.21-17.186 13.517-11.452 21.623-25.378 24.354-41.745l4.096-24.951h513.246c8.431 0 16.469-1.724 24.132-5.12 7.629-3.43 14.012-8.26 19.234-14.524 5.188-6.298 8.875-13.466 11.042-21.487 2.15-8.055 2.56-16.333 1.229-24.764l-28.228-168.67zM822.886 554.206c-0.41 2.048-1.331 3.891-2.662 5.53-1.314 1.638-3.021 2.867-4.915 3.686-1.929 0.819-4.079 1.229-6.537 1.229h-506.283l41.745-250.061 420.745 36.83c6.793 0.495 13.193 3.584 19.234 9.216 5.99 5.564 9.523 11.657 10.65 18.193l28.228 168.619c0.256 2.458 0.188 4.71-0.205 6.758zM641.365 657.033c-1.126-1.229-2.355-2.116-3.84-2.662-1.485-0.512-2.918-0.819-4.471-0.819-1.519 0-3.072 0.307-4.489 0.819-1.485 0.546-2.765 1.434-3.789 2.662-2.372 2.304-3.482 5.069-3.482 8.294 0 3.209 1.109 5.99 3.482 8.294l121.276 121.327h-384c-3.379 0-6.212 1.143-8.533 3.447-2.304 2.304-3.447 5.069-3.447 8.294 0 3.379 1.143 6.212 3.447 8.516s5.154 3.465 8.533 3.465h384l-121.276 121.293c-2.372 2.338-3.482 5.086-3.482 8.311s1.109 5.956 3.482 8.26c2.253 2.321 5.035 3.465 8.294 3.465 3.191 0 5.956-1.143 8.294-3.482l141.551-141.329c2.321-2.304 3.43-5.086 3.43-8.414 0-3.277-1.109-6.093-3.43-8.397l-141.551-141.346zM393.131 78.831c7.492 7.612 16.367 13.619 26.607 18.022 10.24 4.352 21.077 6.537 32.546 6.537 11.725 0 22.63-2.185 32.734-6.537 10.103-4.403 18.944-10.394 26.607-18.022 7.612-7.663 13.619-16.521 18.005-26.607 4.369-10.069 6.554-21.026 6.554-32.751 0-11.452-2.185-22.306-6.554-32.529-4.386-10.24-10.394-19.132-18.005-26.607-7.663-7.509-16.503-13.397-26.607-17.801-10.103-4.386-21.026-6.537-32.751-6.537-11.452 0-22.306 2.15-32.546 6.554s-19.115 10.291-26.607 17.801c-7.509 7.475-13.517 16.367-18.005 26.607s-6.758 21.077-6.758 32.529c0 11.725 2.253 22.682 6.758 32.751 4.523 10.069 10.513 18.927 18.022 26.59zM422.81-9.984c8.175-8.175 18.005-12.271 29.474-12.271 11.725 0 21.692 4.079 29.867 12.271s12.271 18.022 12.271 29.474c0 11.725-4.096 21.692-12.271 29.884s-18.159 12.288-29.867 12.288c-11.452 0-21.282-4.096-29.474-12.288-8.192-8.175-12.288-18.159-12.288-29.884 0-11.452 4.096-21.282 12.288-29.474zM686.387 78.831c7.612 7.612 16.589 13.619 26.812 18.022 10.24 4.352 21.060 6.537 32.529 6.537 11.452 0 22.306-2.185 32.529-6.537 10.24-4.403 19.132-10.394 26.795-18.022 7.68-7.663 13.619-16.521 18.022-26.607 4.352-10.069 6.554-21.026 6.554-32.751 0-11.452-2.202-22.306-6.554-32.529-4.403-10.24-10.325-19.132-18.022-26.607-7.663-7.509-16.572-13.397-26.795-17.801s-21.077-6.537-32.529-6.537c-11.469 0-22.306 2.15-32.529 6.554s-19.2 10.291-26.812 17.801c-7.663 7.475-13.653 16.367-18.005 26.607-4.403 10.24-6.554 21.077-6.554 32.529 0 11.725 2.15 22.682 6.554 32.751 4.352 10.069 10.342 18.927 18.005 26.59zM716.271-9.984c8.175-8.175 18.005-12.271 29.474-12.271 11.452 0 21.282 4.079 29.474 12.271s12.271 18.022 12.271 29.474c0 11.725-4.079 21.692-12.271 29.884s-18.022 12.288-29.474 12.288c-11.469 0-21.282-4.096-29.474-12.288s-12.288-18.159-12.288-29.884c0-11.452 4.096-21.282 12.288-29.474z" />
<glyph unicode="&#xe916;" glyph-name="freeshipping" d="M844.817 302.046c-48.009 0-87.091-37.939-87.091-84.548 0-46.626 39.083-84.548 87.091-84.548 47.974 0 87.040 37.922 87.040 84.548s-39.066 84.548-87.040 84.548zM844.817 192.597c-14.148 0-25.634 11.145-25.634 24.9 0 13.705 11.486 24.849 25.634 24.849 14.063 0 25.549-11.145 25.549-24.849 0-13.756-11.486-24.9-25.549-24.9zM1019.221 452.471l-167.066 193.997c-3.908 4.54-9.626 7.134-15.701 7.134h-150.374c-11.332 0-20.48-8.909-20.48-19.9v-388.011c0-10.974 9.148-19.934 20.48-19.934h21.692c10.155 0 19.098 7.117 20.429 16.896 8.055 59.853 57.156 96.956 116.599 96.956 59.392 0 108.51-37.103 116.548-96.956 1.297-9.779 10.308-16.896 20.446-16.896h21.675c11.332 0 20.514 8.96 20.514 19.934v194.014c0.017 4.659-1.69 9.182-4.762 12.766zM902.554 474.522h-175.514c-11.332 0-20.48 8.892-20.48 19.883v99.516c0 10.991 9.148 19.883 20.48 19.883h90.231c6.059 0 11.793-2.594 15.701-7.168l85.333-99.465c11.093-12.971 1.604-32.649-15.753-32.649zM604.143 763.051h-583.663c-11.315 0-20.48-8.926-20.48-19.917v-497.442c0-10.974 9.165-19.934 20.48-19.934h52.429c10.138 0 19.115 7.117 20.429 16.896 8.038 59.853 57.173 96.956 116.565 96.956 59.426 0 108.561-37.103 116.599-96.956 1.314-9.779 10.274-16.896 20.412-16.896h257.212c11.298 0 20.48 8.96 20.48 19.934v497.442c0.034 10.991-9.148 19.917-20.463 19.917zM209.92 302.046c-48.009 0-87.040-37.939-87.040-84.548 0-46.626 39.031-84.548 87.040-84.548 47.991 0 87.040 37.922 87.040 84.548-0.017 46.626-39.066 84.548-87.040 84.548zM209.92 192.597c-14.114 0-25.6 11.145-25.6 24.9 0 13.705 11.486 24.849 25.6 24.849s25.6-11.145 25.6-24.849c0-13.756-11.486-24.9-25.6-24.9z" />
<glyph unicode="&#xe917;" glyph-name="grid-view" d="M0 504.883h455.117v455.117h-455.117v-455.117zM568.883 960v-455.117h455.117v455.117h-455.117zM0-64h455.117v455.117h-455.117v-455.117zM568.883-64h455.117v455.117h-455.117v-455.117z" />
<glyph unicode="&#xe918;" glyph-name="heart" d="M486.4-12.8c-4.301 0-8.55 1.075-12.442 3.226-4.813 2.662-119.091 66.611-235.11 171.366-68.659 61.952-123.443 125.338-162.97 188.416-50.381 80.435-75.878 160.717-75.878 238.592 0 148.224 120.576 268.8 268.8 268.8 50.176 0 103.475-18.79 150.067-52.941 27.238-19.968 50.432-44.032 67.533-69.581 17.101 25.549 40.294 49.613 67.533 69.581 46.592 34.15 99.891 52.941 150.067 52.941 148.224 0 268.8-120.576 268.8-268.8 0-77.875-25.549-158.157-75.878-238.592-39.475-63.078-94.31-126.464-162.918-188.416-116.019-104.755-230.298-168.704-235.11-171.366-3.891-2.15-8.141-3.226-12.442-3.226zM268.8 806.4c-119.962 0-217.6-97.638-217.6-217.6 0-155.648 120.32-297.062 221.235-388.352 90.112-81.51 181.453-138.65 213.965-158.054 32.512 19.405 123.853 76.544 213.965 158.054 100.915 91.238 221.235 232.704 221.235 388.352 0 119.962-97.638 217.6-217.6 217.6-87.194 0-171.878-71.731-193.331-136.090-3.482-10.445-13.261-17.51-24.269-17.51s-20.787 7.066-24.269 17.51c-21.453 64.358-106.138 136.090-193.331 136.090z" />
<glyph unicode="&#xe919;" glyph-name="hemburger" d="M31.881 735.881c-8.755 0-16.265 3.123-22.511 9.37s-9.37 13.773-9.37 22.511c0 9.165 3.123 16.862 9.37 23.125 6.246 6.246 13.756 9.37 22.511 9.37h960.239c8.755 0 16.247-3.123 22.494-9.37 6.246-6.263 9.387-13.961 9.387-23.125 0-8.755-3.14-16.265-9.387-22.511s-13.756-9.37-22.494-9.37h-960.239zM31.881 415.795c-8.755 0-16.265 3.14-22.511 9.387s-9.37 13.756-9.37 22.494c0 9.165 3.123 16.879 9.37 23.125s13.756 9.37 22.511 9.37h960.239c8.755 0 16.247-3.123 22.494-9.37s9.387-13.943 9.387-23.125c0-8.755-3.14-16.247-9.387-22.494s-13.756-9.387-22.494-9.387h-960.239zM31.881 95.727c-8.755 0-16.265 3.123-22.511 9.37s-9.37 13.756-9.37 22.528c0 9.165 3.123 16.862 9.37 23.108s13.756 9.387 22.511 9.387h960.239c8.755 0 16.247-3.14 22.494-9.387s9.387-13.943 9.387-23.108c0-8.772-3.14-16.265-9.387-22.511s-13.756-9.37-22.494-9.37h-960.239z" />
<glyph unicode="&#xe91a;" glyph-name="instagrame" d="M1024 828.672v-761.378c0-35.925-12.902-66.85-38.69-92.638s-56.627-38.69-92.638-38.69h-761.327c-35.994 0-66.901 12.902-92.672 38.69-25.788 25.788-38.673 56.713-38.673 92.638v761.378c0 35.994 12.885 66.884 38.673 92.672 25.754 25.788 56.678 38.673 92.672 38.673h761.344c35.994 0 66.85-12.885 92.638-38.673s38.673-56.661 38.673-92.672zM908.032 94.669v432.009h-90.010c8.875-28.006 13.295-57.105 13.295-87.33 0-55.996-14.165-107.691-42.633-155.051-28.467-47.292-67.157-84.753-116.036-112.282-48.879-27.597-102.195-41.37-159.949-41.37-87.586 0-162.458 30.106-224.7 90.368-62.225 60.194-93.338 133.001-93.338 218.334 0 30.225 4.437 59.341 13.329 87.33h-93.969v-432.009c0-11.554 3.874-21.231 11.674-28.996 7.765-7.817 17.408-11.674 28.996-11.674h712.687c11.076 0 20.651 3.857 28.655 11.674 7.97 7.765 11.998 17.442 11.998 28.996zM658.364 309.026c40.175 38.844 60.314 85.862 60.314 140.971s-20.139 102.11-60.314 141.005c-40.243 38.912-88.798 58.334-145.664 58.334-56.474 0-104.806-19.422-145.015-58.334-40.243-38.878-60.348-85.897-60.348-141.005s20.105-102.11 60.348-140.971c40.209-38.963 88.542-58.334 145.015-58.334 56.866 0 105.421 19.371 145.664 58.334zM908.032 690.022v109.978c0 12.442-4.506 23.211-13.363 32.341-8.875 9.114-19.763 13.653-32.666 13.653h-115.968c-12.885 0-23.808-4.557-32.666-13.653-8.909-9.131-13.346-19.9-13.346-32.341v-109.995c0-12.885 4.437-23.808 13.346-32.666 8.875-8.892 19.78-13.329 32.666-13.329h115.968c12.902 0 23.808 4.437 32.666 13.329 8.858 8.875 13.363 19.78 13.363 32.683z" />
<glyph unicode="&#xe91b;" glyph-name="instagramme" d="M1024 828.672v-761.344c0-35.959-12.868-66.884-38.639-92.655-25.822-25.771-56.678-38.656-92.706-38.656h-761.31c-36.011 0-66.884 12.885-92.706 38.656-25.754 25.754-38.639 56.678-38.639 92.638v761.361c0 35.994 12.885 66.884 38.656 92.689 25.822 25.754 56.678 38.639 92.706 38.639h761.31c36.011 0 66.884-12.885 92.706-38.639 25.754-25.805 38.622-56.695 38.622-92.689zM908.015 94.635v432.026h-90.010c8.892-28.006 13.363-57.122 13.363-87.33 0-55.996-14.251-107.674-42.684-155.017s-67.14-84.787-115.985-112.299c-48.913-27.597-102.229-41.37-160.034-41.37-87.552 0-162.475 30.106-224.631 90.385-62.276 60.16-93.338 133.001-93.338 218.3 0 30.225 4.42 59.341 13.312 87.33h-94.003v-432.026c0-11.571 3.891-21.197 11.674-28.962 7.782-7.782 17.442-11.674 29.013-11.674h712.636c11.127 0 20.668 3.891 28.689 11.674 8.021 7.765 11.998 17.391 11.998 28.962zM658.347 309.009c40.192 38.878 60.331 85.845 60.331 140.988 0 55.108-20.139 102.076-60.331 141.005-40.243 38.895-88.815 58.334-145.681 58.334-56.457 0-104.772-19.439-145.015-58.334-40.192-38.912-60.314-85.897-60.314-141.005 0-55.125 20.122-102.093 60.314-140.988 40.243-38.895 88.559-58.334 145.015-58.334 56.866 0 105.438 19.439 145.681 58.334zM908.015 690.005v109.995c0 12.442-4.471 23.211-13.312 32.341-8.909 9.079-19.78 13.653-32.666 13.653h-116.036c-12.885 0-23.774-4.591-32.666-13.67-8.892-9.114-13.312-19.9-13.312-32.341v-109.995c0-12.902 4.42-23.808 13.312-32.666 8.892-8.892 19.78-13.346 32.666-13.346h116.036c12.885 0 23.774 4.454 32.666 13.346 8.841 8.875 13.312 19.78 13.312 32.683z" />
<glyph unicode="&#xe91c;" glyph-name="listview" d="M0 691.797h243.814v195.055h-243.814v-195.055zM0 350.481h243.814v195.038h-243.814v-195.038zM0 9.148h243.814v195.038h-243.814v-195.038zM341.333 886.852v-195.055h682.667v195.055h-682.667zM341.333 350.481h682.667v195.038h-682.667v-195.038zM341.333 9.148h682.667v195.038h-682.667v-195.038z" />
<glyph unicode="&#xe91d;" glyph-name="lock" d="M742.4 550.4h-25.6v76.8c0 127.027-103.373 230.4-230.4 230.4s-230.4-103.373-230.4-230.4v-76.8h-25.6c-42.342 0-76.8-34.458-76.8-76.8v-409.6c0-42.342 34.458-76.8 76.8-76.8h512c42.342 0 76.8 34.458 76.8 76.8v409.6c0 42.342-34.458 76.8-76.8 76.8zM307.2 627.2c0 98.816 80.384 179.2 179.2 179.2s179.2-80.384 179.2-179.2v-76.8h-358.4v76.8zM768 64c0-14.131-11.469-25.6-25.6-25.6h-512c-14.131 0-25.6 11.469-25.6 25.6v409.6c0 14.131 11.469 25.6 25.6 25.6h512c14.131 0 25.6-11.469 25.6-25.6v-409.6z" />
<glyph unicode="&#xe91e;" glyph-name="magnifier" d="M966.093-21.094l-304.282 331.981c68.557 71.731 106.24 165.53 106.24 265.114 0 102.554-39.936 199.014-112.486 271.514s-168.96 112.486-271.514 112.486-199.014-39.936-271.514-112.486-112.486-168.96-112.486-271.514 39.936-199.014 112.486-271.514 168.96-112.486 271.514-112.486c88.371 0 172.134 29.645 240.026 84.224l304.282-331.93c5.069-5.53 11.93-8.294 18.893-8.294 6.195 0 12.39 2.202 17.306 6.707 10.445 9.574 11.11 25.754 1.587 36.147zM51.2 576c0 183.501 149.299 332.8 332.8 332.8s332.8-149.299 332.8-332.8-149.299-332.8-332.8-332.8-332.8 149.299-332.8 332.8z" />
<glyph unicode="&#xe91f;" glyph-name="map" d="M960.666 904.96c-7.526 4.659-16.947 5.069-24.883 1.126l-295.731-147.866-295.731 147.866c-7.219 3.584-15.667 3.584-22.886 0l-307.2-153.6c-8.653-4.352-14.131-13.21-14.131-22.886v-768c0-8.858 4.608-17.101 12.134-21.76 4.096-2.56 8.755-3.84 13.466-3.84 3.891 0 7.834 0.922 11.469 2.714l295.731 147.866 295.731-147.866c7.219-3.584 15.718-3.584 22.886 0l307.2 153.6c8.653 4.352 14.131 13.21 14.131 22.886v768c0 8.858-4.608 17.101-12.134 21.76zM307.2 131.021l-256-128v710.758l256 128v-710.758zM358.4 841.779l256-128v-710.758l-256 128v710.758zM921.6 131.021l-256-128v710.758l256 128v-710.758z" />
<glyph unicode="&#xe920;" glyph-name="map-marker" d="M512-64c-7.834 0-15.258 3.584-20.122 9.779-2.918 3.738-72.602 92.877-143.206 224.512-41.574 77.466-74.752 153.549-98.56 226.099-30.054 91.494-45.261 177.766-45.261 256.41 0 169.37 137.83 307.2 307.2 307.2s307.2-137.83 307.2-307.2c0-78.643-15.258-164.864-45.261-256.41-23.808-72.55-56.986-148.634-98.56-226.099-70.656-131.635-140.288-220.774-143.206-224.512-4.864-6.195-12.288-9.779-20.122-9.779zM512 908.8c-141.158 0-256-114.842-256-256 0-166.605 74.906-341.197 137.779-458.291 46.182-86.067 92.621-154.317 118.221-189.952 25.702 35.789 72.448 104.448 118.682 190.771 62.618 116.89 137.318 291.174 137.318 457.472 0 141.158-114.842 256-256 256zM512 499.2c-84.685 0-153.6 68.915-153.6 153.6s68.915 153.6 153.6 153.6 153.6-68.915 153.6-153.6-68.915-153.6-153.6-153.6zM512 755.2c-56.474 0-102.4-45.926-102.4-102.4s45.926-102.4 102.4-102.4c56.474 0 102.4 45.926 102.4 102.4s-45.926 102.4-102.4 102.4z" />
<glyph unicode="&#xe921;" glyph-name="minus" d="M984.747 408.371c10.786 0 20.002 3.874 27.699 11.605 7.697 7.629 11.554 16.862 11.554 27.648 0 11.264-3.857 20.77-11.554 28.467s-16.913 11.537-27.699 11.537h-945.51c-10.769 0-20.002-3.857-27.699-11.537-7.68-7.697-11.537-17.203-11.537-28.467 0-10.769 3.857-20.019 11.537-27.648 7.697-7.731 16.93-11.605 27.699-11.605h945.51z" />
<glyph unicode="&#xe922;" glyph-name="paysafe" d="M946.517 800.017c-180.036 0-317.918 49.92-434.534 159.983-116.599-110.063-254.515-159.983-434.5-159.983 0-286.652-61.099-697.259 434.5-864.017 495.65 166.758 434.534 577.365 434.534 864.017zM475.989 295.595l-144.759 140.544 64.819 62.908 79.94-77.619 151.979 147.507 64.802-62.908-216.781-210.432z" />
<glyph unicode="&#xe923;" glyph-name="pencil" d="M978.125 914.125c-28.774 28.774-67.021 44.595-107.725 44.595s-78.95-15.821-107.725-44.595l-652.8-652.8c-2.662-2.662-4.659-5.837-5.939-9.37l-102.4-281.6c-3.379-9.37-1.075-19.814 5.939-26.829 4.864-4.864 11.418-7.475 18.125-7.475 2.918 0 5.888 0.512 8.755 1.536l281.6 102.4c3.533 1.28 6.707 3.328 9.37 5.939l652.8 652.8c28.774 28.774 44.595 67.021 44.595 107.725s-15.821 78.95-44.595 107.725zM293.12 86.118l-224.717-81.715 81.715 224.717 566.682 566.682 143.002-143.002-566.682-566.682zM941.875 734.925l-45.875-45.875-143.002 143.002 45.875 45.875c19.098 19.098 44.493 29.594 71.475 29.594s52.378-10.496 71.475-29.594c19.098-19.098 29.594-44.493 29.594-71.475s-10.496-52.378-29.594-71.475z" />
<glyph unicode="&#xe924;" glyph-name="pintenrest" d="M955.375 705.007c-45.79 78.438-107.913 140.544-186.368 186.317-78.421 45.79-164.113 68.659-256.973 68.659-92.894 0-178.603-22.886-257.024-68.659-78.455-45.773-140.578-107.878-186.317-186.317-45.79-78.473-68.693-164.13-68.693-257.024 0-103.578 28.194-197.547 84.685-281.975 56.439-84.429 130.441-146.893 222.020-187.358-1.792 47.531 1.075 86.921 8.653 118.033l66.014 278.63c-11.127 21.777-16.691 48.896-16.691 81.357 0 37.769 9.54 69.325 28.638 94.669 19.098 25.327 42.428 38.007 70.007 38.007 22.221 0 39.39-7.356 51.337-21.999 12.015-14.66 18.039-33.109 18.039-55.347 0-13.79-2.56-30.549-7.68-50.313-5.103-19.78-11.742-42.701-19.968-68.642-8.26-26.010-14.148-46.763-17.698-62.31-6.212-27.136-1.109-50.364 15.36-69.717 16.435-19.354 38.195-28.962 65.331-28.962 47.531 0 86.528 26.436 116.975 79.326 30.464 52.89 45.687 117.077 45.687 192.631 0 58.231-18.825 105.574-56.337 142.012-37.581 36.437-89.89 54.665-157.013 54.665-75.11 0-135.885-24.098-182.357-72.329-46.421-48.247-69.649-105.899-69.649-173.005 0-40.004 11.315-73.609 34.014-100.676 7.526-8.892 9.967-18.415 7.356-28.621-0.939-2.731-2.679-9.335-5.342-20.036-2.679-10.701-4.489-17.596-5.342-20.668-3.55-14.234-11.998-18.671-25.327-13.363-34.219 14.251-60.211 38.895-78.012 74.035-17.749 35.106-26.641 75.759-26.641 121.975 0 29.781 4.762 59.546 14.336 89.344 9.54 29.747 24.405 58.573 44.681 86.34 20.173 27.767 44.425 52.326 72.619 73.643 28.245 21.35 62.566 38.451 103.014 51.337 40.431 12.919 84.002 19.354 130.662 19.354 63.078 0 119.791-13.995 170.001-42.001 50.193-28.006 88.559-64.239 114.995-108.663 26.453-44.459 39.663-92.006 39.663-142.677 0-66.662-11.571-126.618-34.645-180.002-23.142-53.333-55.825-95.181-97.997-125.662-42.257-30.413-90.231-45.636-144.009-45.636-27.119 0-52.446 6.315-76.015 18.944-23.535 12.681-39.765 27.716-48.674 45.022-19.985-78.643-31.983-125.508-35.959-140.681-8.465-31.505-25.822-67.942-52.019-109.329 47.531-14.182 96-21.282 145.357-21.282 92.843 0 178.551 22.903 256.973 68.625 78.455 45.756 140.578 107.861 186.368 186.334 45.705 78.438 68.591 164.096 68.591 256.973 0 92.894-22.886 178.551-68.625 257.024z" />
<glyph unicode="&#xe925;" glyph-name="plan" d="M1008.043 953.719c12.578-9.148 17.715-21.35 15.394-36.591l-146.261-877.722c-1.911-11.025-8.004-19.575-18.261-25.719-5.359-3.055-11.23-4.557-17.732-4.557-4.181 0-8.772 0.956-13.739 2.867l-258.799 105.711-138.291-168.585c-6.861-8.772-16.213-13.141-28.006-13.141-4.966 0-9.165 0.768-12.595 2.27-7.219 2.679-13.039 7.134-17.408 13.414-4.386 6.315-6.588 13.261-6.588 20.873v199.475l493.687 605.133-610.816-528.606-225.69 92.604c-14.114 5.325-21.726 15.77-22.869 31.403-0.751 15.292 5.342 26.453 18.295 33.741l950.818 548.557c5.734 3.43 11.81 5.137 18.261 5.137 7.646 0 14.507-2.099 20.599-6.263z" />
<glyph unicode="&#xe926;" glyph-name="plus" d="M984.747 487.595c10.786 0 20.002-3.857 27.699-11.554 7.697-7.68 11.554-17.186 11.554-28.45 0-10.769-3.857-20.002-11.554-27.699-7.697-7.68-16.913-11.537-27.699-11.537h-433.135v-433.152c0-10.769-3.857-20.002-11.537-27.682-7.697-7.697-16.93-11.554-27.699-11.554s-20.002 3.857-27.699 11.554c-7.697 7.68-11.537 16.913-11.537 27.682v433.152h-433.903c-10.769 0-20.002 3.857-27.699 11.537-7.68 7.697-11.537 16.93-11.537 27.699 0 11.264 3.857 20.787 11.537 28.467 7.697 7.697 16.93 11.554 27.699 11.554h433.92v433.118c0 10.769 3.84 20.002 11.537 27.699s16.93 11.605 27.699 11.605 20.002-3.908 27.699-11.605c7.68-7.697 11.537-16.93 11.537-27.699v-433.135h433.118z" />
<glyph unicode="&#xe927;" glyph-name="question" d="M385.997 656.828c0 0-4.915-5.342-8.585-9.25 1.997 2.082 4.591 4.915 8.585 9.25zM500.258 701.577c-48.418 0-86.494-14.916-114.244-44.749-27.75-29.918-41.591-69.41-41.591-118.494h60.672c1.075 29.508 5.837 52.173 13.995 67.84 14.507 28.16 40.755 42.257 78.746 42.257 30.583 0 52.668-8.175 65.911-24.508 13.329-16.418 19.917-35.755 19.917-57.993 0-15.923-4.591-31.164-13.67-45.995-5.001-8.414-11.503-16.503-19.746-24.252l-27.255-26.914c-26.163-25.754-43.008-48.503-50.756-68.335-7.748-19.917-11.588-46.165-11.588-78.575h60.672c0 28.587 3.243 50.244 9.745 64.836 6.502 14.746 20.582 32.58 42.411 53.743 30.089 29.082 49.92 51.166 59.836 66.167 9.83 15.002 14.831 34.577 14.831 58.675 0 39.748-13.414 72.414-40.414 98.082-26.897 25.463-62.72 38.212-107.469 38.212zM511.915 960c-282.743 0-511.915-229.257-511.915-512 0-282.829 229.171-512 511.915-512s512.085 229.171 512.085 512c0 282.743-229.325 512-512.085 512zM511.915-17.493c-256.99 0-465.408 208.486-465.408 465.493 0 257.075 208.418 465.425 465.425 465.425 257.075 0 465.425-208.333 465.425-465.425-0.017-257.007-208.35-465.493-465.442-465.493zM459.247 194.338h67.84v70.997h-67.84v-70.997z" />
<glyph unicode="&#xe928;" glyph-name="savesafe" d="M978.91 277.487c-69.973 160.683-196.574 335.838-329.216 420.437h-275.388c-132.659-84.599-259.26-259.755-329.131-420.437-36.096-82.79-44.919-164.864-45.175-225.143-0.137-52.002 42.257-94.089 94.396-94.089h835.226c52.122 0 94.464 42.086 94.379 94.089-0.137 60.279-9.079 142.353-45.090 225.143zM614.861 163.055c-17.562-18.347-41.387-30.618-68.864-35.396v-13.909c0-12.681-10.377-22.903-23.040-22.903h-12.476c-12.732 0-23.040 10.377-23.040 22.903v14.541c-15.087 2.782-29.611 7.731-42.564 14.353-15.343 7.817-28.689 20.685-39.782 38.076-7.441 11.657-12.732 25.037-16.043 40.090-2.697 12.698 5.786 25.088 18.654 27.307l12.476 2.133c11.964 2.133 23.398-5.274 26.351-16.913 3.516-13.824 8.26-24.525 14.131-32 13.21-16.947 35.038-27.034 58.436-27.034 3.994 0 7.919 0.358 11.776 0.785 16.777 2.475 31.642 10.325 42.138 22.255 10.957 12.442 16.521 28.211 16.521 46.694 0 15.872-3.908 28.57-11.571 37.837-14.029 17.22-38.11 24.525-59.819 29.474-26.914 6.076-51.098 12.186-75.383 25.754-15.565 8.687-27.87 20.907-36.352 36.335-8.397 15.275-12.612 32.922-12.612 52.19 0 34.492 12.39 62.72 36.915 84.122 14.524 12.698 34.355 21.555 56.747 25.532v18.825c0 12.698 10.394 22.938 23.040 22.938h12.476c12.749 0 23.040-10.325 23.040-22.938v-19.029c20.736-3.994 39.27-12.117 53.077-23.654 14.746-12.117 25.481-27.631 32.085-45.978 4.83-13.551-3.994-28.228-18.381-30.362l-12.169-1.775c-10.974-1.621-21.692 4.83-25.259 15.292-2.97 8.585-6.827 15.65-11.657 21.060-11.008 12.356-28.348 19.302-47.565 19.302-20.446 0-39.782-8.004-51.695-21.299-9.779-10.94-14.524-23.518-14.524-38.468 0-14.592 4.13-27.034 12.305-36.676 16.964-20.343 44.817-25.993 71.731-31.386 15.701-3.209 31.966-6.537 45.995-12.612 15.002-6.605 27.529-14.814 37.052-24.354 9.574-9.523 17.135-21.026 22.306-34.253 5.086-13.056 7.782-27.392 7.782-42.701-0.017-33.485-10.837-61.696-32.239-84.156zM383.266 752.589h267.383l80.708 120.695c18.295 27.29-1.297 63.863-34.219 63.966l-180.463 0.478-179.9-0.478c-32.956-0.102-52.531-36.676-34.219-63.966l80.708-120.695z" />
<glyph unicode="&#xe929;" glyph-name="seacure" d="M377.412 647.578c1.997 2.082 4.591 4.915 8.585 9.25 0 0-4.915-5.325-8.585-9.25zM755.456 657.903c-149.879-88.559-257.894-200.482-301.824-250.197l-112.606 85.060c-2.987 2.065-64.836-50.859-63.215-52.48l205.158-201.097c1.502-1.621 3.584-2.372 5.82-2.372 0.41 0 1.075 0 1.604 0.137 2.662 0.597 4.932 2.304 5.973 4.898 33.041 81.442 142.165 252.006 281.481 375.654 2.492 2.287 3.328 5.837 1.98 8.892-0.051 0.034-22.306 32.734-24.371 31.505zM889.993 835.874c-310.63 0-363.145 113.647-363.657 114.722-2.253 5.53-7.868 9.267-14.251 9.404 0 0-0.119 0-0.239 0-6.229 0-11.913-3.738-14.353-9.148-0.41-1.212-54.050-114.978-363.486-114.978-8.67 0-15.462-6.758-15.462-14.899v-509.321c0-208.486 371.422-367.787 387.157-374.494 2.065-0.853 4.028-1.161 6.298-1.161 1.997 0 4.233 0.307 6.229 1.143 15.855 6.724 387.209 166.025 387.209 374.494v509.338c-0.051 8.141-6.912 14.899-15.445 14.899zM516.813 48.128c-1.502-0.683-3.277-0.973-4.847-0.973-1.69 0-3.26 0.29-4.932 0.973-12.186 5.188-303.121 129.997-303.121 293.137v398.643c0 6.434 5.376 11.742 12.151 11.742 242.244 0 284.245 89.037 284.638 89.924 1.877 4.301 6.298 7.202 11.179 7.202 0.085 0 0.205 0 0.205 0 5.001-0.068 9.387-2.97 11.145-7.39 0.375-0.819 41.523-89.737 284.638-89.737 6.758 0 12.117-5.325 12.117-11.742v-398.643h0.034c0-163.14-290.833-287.949-303.206-293.137z" />
<glyph unicode="&#xe92a;" glyph-name="search" d="M991.625-21.504c4.642-5.001 6.895-11.093 6.758-18.244s-2.901-13.107-8.243-17.749c-2.355-2.355-5.001-3.994-8.004-5.001s-6.161-1.502-9.523-1.502-6.656 0.649-10.001 1.997-6.144 3.345-8.499 6.007l-304.503 331.998c-16.998-13.705-34.901-25.754-53.743-36.25s-38.349-19.251-58.505-26.249c-20.139-6.997-40.994-12.305-62.498-16.009s-43.23-5.495-65.246-5.495c-25.651 0-50.842 2.406-75.503 7.253s-48.503 11.998-71.492 21.504-45.005 21.248-65.997 35.243-40.499 30.208-58.505 48.503c-18.005 18.005-33.997 37.495-48.009 58.505s-25.856 43.008-35.499 65.997-16.896 46.831-21.743 71.492-7.253 49.835-7.253 75.503 2.406 50.825 7.253 75.503 12.1 48.503 21.743 71.492 21.504 44.919 35.499 65.758 30.003 40.431 48.009 58.743c18.005 18.005 37.495 33.997 58.505 48.009s43.008 25.754 65.997 35.243 46.848 16.742 71.492 21.743 49.869 7.509 75.503 7.509 50.842-2.492 75.503-7.492 48.486-12.254 71.492-21.743 45.005-21.248 65.997-35.243 40.499-30.003 58.505-48.009c18.005-18.33 33.997-37.922 48.009-58.743s25.856-42.752 35.499-65.758 16.896-46.831 21.743-71.492 7.253-49.818 7.253-75.503c0-25.003-2.355-49.493-6.997-73.506s-11.503-47.258-20.497-69.751-20.105-43.998-33.246-64.495-28.245-39.748-45.244-57.754l303.991-332.015zM76.629 576c0-45.995 8.755-89.173 26.249-129.502s41.353-75.605 71.492-105.745 65.399-53.999 105.745-71.492 83.507-26.249 129.502-26.249 89.156 8.755 129.485 26.249c40.346 17.493 75.605 41.353 105.745 71.492s53.999 65.417 71.492 105.745c17.493 40.329 26.249 83.507 26.249 129.502 0 45.67-8.755 88.747-26.249 129.246s-41.353 75.742-71.492 105.745-65.399 53.743-105.745 71.253c-40.346 17.493-83.49 26.249-129.485 26.249s-89.156-8.755-129.502-26.249-75.605-41.25-105.745-71.253-53.999-65.246-71.492-105.745-26.249-83.575-26.249-129.246z" />
<glyph unicode="&#xe92b;" glyph-name="share" d="M810.667 362.718c59.102 0 109.431-20.838 151.040-62.362 41.523-41.591 62.293-91.87 62.293-151.023 0-59.102-20.77-109.431-62.293-150.972-41.609-41.591-91.938-62.362-151.040-62.362-59.085 0-109.431 20.77-150.972 62.362-41.591 41.54-62.345 91.87-62.345 150.972 0 5.359 0.461 12.885 1.331 22.682l-240.009 119.996c-40.892-38.263-89.327-57.344-145.34-57.344-59.085 0-109.431 20.77-150.989 62.362-41.574 41.54-62.345 91.87-62.345 150.972 0 59.085 20.77 109.431 62.327 151.023 41.557 41.54 91.904 62.293 150.989 62.293 56.013 0 104.448-19.081 145.34-57.344l240.009 119.996c-0.87 9.796-1.331 17.391-1.331 22.699 0 59.085 20.77 109.431 62.345 151.023 41.557 41.54 91.904 62.31 150.989 62.31 59.102 0 109.431-20.77 151.040-62.293 41.523-41.591 62.293-91.938 62.293-151.040s-20.77-109.449-62.293-151.040c-41.609-41.523-91.938-62.293-151.040-62.293-55.996 0-104.414 19.081-145.306 57.344l-240.026-119.979c0.87-9.796 1.348-17.391 1.348-22.699s-0.461-12.885-1.348-22.63l240.026-120.047c40.892 38.263 89.31 57.395 145.306 57.395z" />
<glyph unicode="&#xe92c;" glyph-name="star" d="M511.983 962.099l168.772-323.14 343.245-69.564-238.916-269.346 43.315-366.148-316.416 156.723-316.416-156.723 43.366 366.148-238.933 269.346 343.211 69.564 168.772 323.14z" />
<glyph unicode="&#xe92d;" glyph-name="top-arrow" d="M377.412 647.578c1.997 2.082 4.591 4.915 8.585 9.25 0 0-4.915-5.325-8.585-9.25zM1007.821 253.986c21.862-21.743 20.651-55.552 1.894-74.735-21.538-21.982-53.214-20.753-72.175-1.894l-430.251 428.237-419.14-428.237c-20.19-20.651-53.436-19.081-72.175 0-10.291 10.598-15.974 23.979-15.974 39.253 0 14.387 5.683 26.778 15.957 37.359l452.83 464.674c20.207 20.753 54.101 18.961 73.199 0l465.835-464.657z" />
<glyph unicode="&#xe92e;" glyph-name="trash" d="M818.995 857.498c21.35 0 39.492-7.492 54.494-22.494s22.511-33.178 22.511-54.511v-50.995c0-16.674-4.847-31.573-14.507-44.749s-21.999-22.426-37.001-27.75v-644.506c0-20.992-7.492-38.997-22.494-53.999s-33.007-22.494-53.999-22.494h-512c-21.35 0-39.492 7.492-54.494 22.494s-22.494 33.007-22.494 53.999v644.506c-14.66 5.325-26.863 14.575-36.506 27.75s-14.507 28.075-14.507 44.749v50.995c0 21.333 7.492 39.492 22.494 54.494s33.007 22.494 53.999 22.494h179.507v25.515c0 21.333 7.492 39.492 22.494 54.494s33.007 22.511 53.999 22.511h102.502c21.367 0 39.492-7.492 54.494-22.494s22.511-33.178 22.511-54.511v-25.498h178.995zM844.493 729.498v50.995c0 6.997-2.492 13.005-7.492 18.005s-11.008 7.492-18.005 7.492h-614.502c-6.997 0-13.005-2.492-18.005-7.492s-7.492-11.008-7.492-18.005v-50.995c0-6.997 2.492-13.005 7.492-18.005s11.008-7.492 18.005-7.492h614.502c6.997 0 13.005 2.492 18.005 7.492s7.492 11.008 7.492 18.005zM768-13.005c6.997 0 13.005 2.492 18.005 7.492s7.492 11.008 7.492 18.005v640h-562.995v-640c0-6.997 2.492-13.005 7.492-18.005s11.008-7.492 18.005-7.492h512zM358.502 601.498c6.997 0 13.005-2.492 18.005-7.492s7.492-11.008 7.492-18.005v-512c0-7.287-2.492-13.5-7.492-18.5s-11.008-7.492-18.005-7.492c-7.356 0-13.5 2.492-18.5 7.492s-7.492 11.213-7.492 18.5v512c0 6.997 2.492 13.005 7.492 18.005s11.145 7.492 18.5 7.492zM434.995 882.995v-25.498h153.498v25.498c0 6.997-2.492 13.005-7.492 18.005s-11.008 7.492-18.005 7.492h-102.502c-6.997 0-13.005-2.492-18.005-7.492s-7.492-11.008-7.492-18.005zM512 601.498c6.997 0 13.005-2.492 18.005-7.492s7.492-11.008 7.492-18.005v-512c0-7.287-2.492-13.5-7.492-18.5s-11.008-7.492-18.005-7.492-13.005 2.492-18.005 7.492-7.492 11.213-7.492 18.5v512c0 6.997 2.492 13.005 7.492 18.005s11.008 7.492 18.005 7.492zM665.498 601.498c6.997 0 13.005-2.492 18.005-7.492s7.492-11.008 7.492-18.005v-512c0-7.287-2.492-13.5-7.492-18.5s-11.008-7.492-18.005-7.492-13.005 2.492-18.005 7.492-7.492 11.213-7.492 18.5v512c0 6.997 2.492 13.005 7.492 18.005s11.008 7.492 18.005 7.492z" />
<glyph unicode="&#xe92f;" glyph-name="truck" d="M1018.351 447.13l-132.676 150.818c-4.318 4.915-10.547 7.731-17.118 7.731h-110.49v93.133c0 12.527-10.223 22.716-22.801 22.716h-470.562c-12.578 0-22.767-10.172-22.767-22.716v-30.583h-219.153c-12.578-0.017-22.784-10.189-22.784-22.716s10.206-22.682 22.784-22.682h219.136v-130.065h-115.354c-8.636 0-15.633-6.963-15.633-15.565s6.997-15.582 15.633-15.582h115.354v-132.881h-131.925c-12.578 0-22.767-10.155-22.767-22.682s10.206-22.682 22.767-22.682h131.925v-23.074c0-12.527 10.206-22.682 22.767-22.682h47.548c10.018-36.352 43.469-63.13 83.115-63.13 39.629 0 73.097 26.778 83.115 63.13h304.043c10.001-36.352 43.469-63.13 83.115-63.13 39.612 0 73.097 26.778 83.081 63.13h52.531c12.578 0 22.767 10.155 22.767 22.682v171.861c0 5.495-1.997 10.82-5.649 14.967zM395.366 219.853c-22.391 0-40.619 18.159-40.619 40.448 0 22.323 18.227 40.448 40.619 40.448s40.619-18.142 40.619-40.448c0-22.289-18.227-40.448-40.619-40.448zM712.482 282.999h-234.001c-10.018 36.335-43.486 63.13-83.115 63.13-39.646 0-73.097-26.795-83.115-63.13h-24.764v178.62h6.69c8.636 0 15.633 6.98 15.633 15.582s-6.997 15.565-15.633 15.565h-6.69v183.364h424.994v-393.131zM865.604 219.853c-22.409 0-40.602 18.159-40.602 40.448 0 22.323 18.193 40.448 40.602 40.448s40.619-18.142 40.619-40.448c0-22.289-18.227-40.448-40.619-40.448zM978.432 282.999h-29.73c-10.018 36.335-43.469 63.13-83.098 63.13s-73.097-26.795-83.098-63.13h-24.457v277.299h100.164l120.218-136.636v-140.663zM217.139 343.552c8.636 0 15.633 6.963 15.633 15.565s-6.997 15.565-15.633 15.565h-8.346c-8.636 0-15.633-6.963-15.633-15.565s6.997-15.565 15.633-15.565h8.346z" />
<glyph unicode="&#xe930;" glyph-name="twitter" d="M1024 765.047c-29.047-42.445-64.102-78.575-105.267-108.476 0.41-6.059 0.666-15.172 0.666-27.29 0-56.32-8.243-112.538-24.678-168.619-16.503-56.115-41.523-109.926-75.042-161.485-33.604-51.558-73.54-97.109-119.859-136.738-46.387-39.646-102.229-71.253-167.663-94.857-65.382-23.637-135.356-35.43-209.835-35.43-117.402 0-224.802 31.42-322.304 94.191 15.155-1.707 32.068-2.543 50.688-2.543 97.451 0 184.303 29.833 260.574 89.634-45.483 0.853-86.221 14.865-122.18 41.933-35.959 27.051-60.638 61.628-74.052 103.595 14.302-2.167 27.477-3.209 39.595-3.209 18.62 0 37.052 2.372 55.245 7.1-48.503 10.001-88.678 34.116-120.525 72.465-31.829 38.349-47.753 82.859-47.753 133.53v2.594c29.474-16.469 61.065-25.344 94.839-26.658-28.57 19.063-51.302 43.964-68.215 74.718-16.862 30.771-25.293 64.102-25.293 100.062 0 38.093 9.523 73.438 28.57 105.899 52.395-64.546 116.173-116.19 191.351-154.948 75.127-38.758 155.58-60.331 241.391-64.666-3.516 16.469-5.222 32.495-5.222 48.094 0 58.027 20.463 107.537 61.406 148.463s90.402 61.406 148.48 61.406c60.638 0 111.77-22.101 153.31-66.287 47.241 9.097 91.614 25.993 133.222 50.688-16.060-49.818-46.814-88.371-92.279-115.644 40.294 4.352 80.572 15.155 120.832 32.478z" />
<glyph unicode="&#xe931;" glyph-name="uparrow" d="M325.82-64v558.541h-279.262l465.442 465.459 465.442-465.459h-279.262v-558.541h-372.361z" />
<glyph unicode="&#xe932;" glyph-name="user" d="M312.747 479.249c25.498-25.498 55.347-45.67 89.498-60.501 34.133-14.814 70.758-22.255 109.756-22.255 38.639 0 75.093 7.441 109.227 22.255 34.167 14.831 64.017 35.004 89.515 60.501s45.653 55.33 60.501 89.498c14.848 34.167 22.255 70.571 22.255 109.244 0 38.997-7.407 75.571-22.255 109.756s-35.004 64-60.501 89.498c-25.498 25.498-55.347 45.67-89.515 60.501-34.133 14.831-70.588 22.255-109.227 22.255-38.997 0-75.605-7.424-109.756-22.255s-64-35.004-89.498-60.501c-25.515-25.498-45.602-55.33-60.245-89.498s-22.016-70.758-22.016-109.756c0-38.673 7.356-75.076 22.016-109.244 14.643-34.167 34.748-64 60.245-89.498zM299.742 768c12.134 28.006 28.655 52.429 49.493 73.25s45.244 37.257 73.25 49.254c28.006 12.015 57.856 18.005 89.498 18.005s61.508-5.99 89.515-18.005c27.989-11.998 52.378-28.433 73.233-49.254s37.342-45.244 49.493-73.25c12.151-27.989 18.244-57.993 18.244-89.993 0-31.676-6.093-61.508-18.244-89.498s-28.655-52.429-49.493-73.25-45.244-37.257-73.233-49.254c-27.989-11.998-57.856-18.005-89.498-18.005s-61.508 6.007-89.498 18.005-52.412 28.433-73.25 49.254c-20.855 20.821-37.359 45.244-49.493 73.25-12.151 28.006-18.244 57.822-18.244 89.498-0.017 32 6.093 62.003 18.227 89.993zM997.257 28.996c-0.853 10.001-3.243 22.801-7.253 38.502s-10.155 33.382-18.5 53.248c-8.346 19.849-20.343 40.055-35.994 60.757-8.977 11.998-18.842 23.381-29.508 34.253-10.633 10.854-22.153 20.992-34.492 30.498-12.373 9.506-25.412 18.347-39.27 26.505-13.858 8.141-28.399 15.548-43.742 22.255-18.671 8.294-38.519 15.701-59.511 21.999s-43.008 11.588-65.997 15.753c-23.006 4.147-47.155 7.356-72.499 9.506s-51.507 3.243-78.507 3.243c-27.358 0-53.606-1.092-78.746-3.243-25.156-2.15-49.357-5.342-72.499-9.506s-45.244-9.455-66.253-15.753-40.858-13.705-59.494-21.999c-15.343-6.707-29.901-14.114-43.742-22.255-13.858-8.158-26.846-16.998-38.997-26.505s-23.603-19.644-34.253-30.498c-10.65-10.871-20.651-22.255-30.003-34.253-15.343-20.702-27.255-40.892-35.755-60.757s-14.746-37.547-18.756-53.248c-3.994-15.701-6.349-28.501-6.997-38.502s-0.99-15.497-0.99-16.521c0-20.975 7.492-38.98 22.494-53.982 15.002-15.019 33.161-22.494 54.494-22.494h819.012c21.35 0 39.492 7.475 54.494 22.494 15.002 15.002 22.494 33.007 22.494 53.982 0.017 1.024-0.393 6.519-1.229 16.521zM939.503-5.495c-5.001-5.001-11.008-7.492-18.005-7.492h-819.012c-7.339 0-13.5 2.492-18.483 7.492-5.001 5.001-7.492 10.991-7.492 17.988 0 0.324 0.358 4.625 1.007 12.749 0.649 8.175 2.748 18.859 6.246 32.017 3.499 13.141 8.892 28.058 16.265 44.749 7.356 16.708 17.647 33.707 30.993 50.995 17.647 23.006 39.1 43.298 64.256 60.996s53.743 32.393 85.743 44.254 67.345 20.753 106.001 26.743 80.35 8.994 124.996 8.994c44.663 0 86.255-3.004 124.774-8.994 38.485-6.007 73.83-14.899 105.984-26.743s60.843-26.556 85.999-44.254 46.592-38.007 64.256-60.996c13.346-17.306 23.603-34.304 30.754-50.995s12.493-31.625 16.009-44.749c3.499-13.158 5.598-23.842 6.246-32.017 0.649-8.141 1.007-12.442 1.007-12.749-0.051-7.014-2.543-12.988-7.543-17.988z" />
</font>
</defs>
</svg>
